<svg width="17" height="21" viewBox="0 0 17 21" fill="none" xmlns="http://www.w3.org/2000/svg">
<path d="M4.66885 10.5881C4.80968 10.5356 4.96113 10.5083 5.11424 10.5078C5.26735 10.5074 5.41901 10.5337 5.56027 10.5853C5.70153 10.6368 5.82951 10.7126 5.93665 10.8081C6.0438 10.9036 6.12792 11.0168 6.18406 11.1412C6.2402 11.2656 6.2672 11.3985 6.26349 11.5321C6.25977 11.6657 6.22541 11.7974 6.16242 11.9192C6.09944 12.041 6.00911 12.1506 5.89679 12.2415C5.78447 12.3323 5.65242 12.4025 5.50847 12.4481C4.74278 12.7114 4.08562 13.1699 3.62249 13.7638C3.15937 14.3577 2.91171 15.0596 2.91174 15.7781V17.5181C2.91174 17.7833 3.03242 18.0376 3.24723 18.2252C3.46205 18.4127 3.7534 18.5181 4.05719 18.5181H13.2208C13.5245 18.5181 13.8159 18.4127 14.0307 18.2252C14.2455 18.0376 14.3662 17.7833 14.3662 17.5181V15.8711C14.3663 15.1295 14.1083 14.4055 13.6264 13.7949C13.1444 13.1843 12.4613 12.716 11.6675 12.4521C11.5227 12.4082 11.3894 12.3394 11.2756 12.2497C11.1617 12.16 11.0697 12.0513 11.0049 11.9299C10.9401 11.8086 10.9039 11.6772 10.8984 11.5434C10.8928 11.4096 10.9181 11.2763 10.9727 11.1512C11.0273 11.0261 11.1101 10.9119 11.2163 10.8152C11.3224 10.7186 11.4496 10.6416 11.5905 10.5887C11.7313 10.5358 11.8829 10.5081 12.0363 10.5074C12.1896 10.5066 12.3415 10.5326 12.4831 10.5841C13.7105 10.9922 14.767 11.7164 15.5124 12.6606C16.2578 13.6047 16.657 14.7244 16.6571 15.8711V17.5181C16.6571 18.3137 16.295 19.0768 15.6506 19.6394C15.0062 20.202 14.1321 20.5181 13.2208 20.5181H4.05719C3.14581 20.5181 2.27177 20.202 1.62733 19.6394C0.982891 19.0768 0.62085 18.3137 0.62085 17.5181L0.62085 15.7781C0.621007 14.6582 1.00718 13.5643 1.72914 12.6387C2.45109 11.7131 3.47542 10.9985 4.66885 10.5881ZM8.63897 0.518066C9.85413 0.518066 11.0195 0.939494 11.8788 1.68964C12.738 2.43978 13.2208 3.4572 13.2208 4.51807V6.51807C13.2208 7.57893 12.738 8.59635 11.8788 9.34649C11.0195 10.0966 9.85413 10.5181 8.63897 10.5181C7.4238 10.5181 6.25841 10.0966 5.39916 9.34649C4.53991 8.59635 4.05719 7.57893 4.05719 6.51807V4.51807C4.05719 3.4572 4.53991 2.43978 5.39916 1.68964C6.25841 0.939494 7.4238 0.518066 8.63897 0.518066ZM8.63897 2.51807C8.03139 2.51807 7.44869 2.72878 7.01906 3.10385C6.58944 3.47893 6.34808 3.98763 6.34808 4.51807V6.51807C6.34808 7.0485 6.58944 7.55721 7.01906 7.93228C7.44869 8.30735 8.03139 8.51807 8.63897 8.51807C9.24655 8.51807 9.82925 8.30735 10.2589 7.93228C10.6885 7.55721 10.9299 7.0485 10.9299 6.51807V4.51807C10.9299 3.98763 10.6885 3.47893 10.2589 3.10385C9.82925 2.72878 9.24655 2.51807 8.63897 2.51807Z" fill="#181725"/>
</svg>
