<svg width="18" height="18" viewBox="0 0 18 18" fill="none" xmlns="http://www.w3.org/2000/svg">
<path d="M17.1028 8.62976C17.1028 9.00559 16.9587 9.36889 16.6892 9.63197C16.426 9.90132 16.0626 10.0516 15.6866 10.0516H10.0221V15.7141C10.0221 16.09 9.87167 16.4533 9.60223 16.7164C9.33905 16.9794 8.98188 17.1298 8.60592 17.1298C8.22995 17.1298 7.86651 16.9794 7.60334 16.7164C7.33389 16.4533 7.18351 16.09 7.18351 15.7141V10.0516H1.51893C1.14296 10.0516 0.779525 9.90132 0.516348 9.63197C0.25317 9.36889 0.102783 9.00559 0.102783 8.62976C0.102783 8.25393 0.25317 7.89689 0.516348 7.62755C0.779525 7.36447 1.14296 7.21414 1.51893 7.21414H7.18351V1.55165C7.18351 1.17582 7.33389 0.812517 7.60334 0.549437C7.86651 0.280092 8.22995 0.129761 8.60592 0.129761C8.98188 0.129761 9.33905 0.280092 9.60223 0.549437C9.87167 0.812517 10.0221 1.17582 10.0221 1.55165V7.21414H15.6866C16.0626 7.21414 16.426 7.36447 16.6892 7.62755C16.9587 7.89689 17.1028 8.25393 17.1028 8.62976Z" fill="white"/>
</svg>
