<svg width="23" height="21" viewBox="0 0 23 21" fill="none" xmlns="http://www.w3.org/2000/svg">
<path d="M8.98494 20.518C8.33639 20.518 7.7144 20.2604 7.2558 19.8018C6.79721 19.3432 6.53957 18.7212 6.53957 18.0726C6.53957 17.4241 6.79721 16.8021 7.2558 16.3435C7.7144 15.8849 8.33639 15.6273 8.98494 15.6273C9.63349 15.6273 10.2555 15.8849 10.7141 16.3435C11.1727 16.8021 11.4303 17.4241 11.4303 18.0726C11.4303 18.7212 11.1727 19.3432 10.7141 19.8018C10.2555 20.2604 9.63349 20.518 8.98494 20.518ZM17.5437 20.518C16.8952 20.518 16.2732 20.2604 15.8146 19.8018C15.356 19.3432 15.0983 18.7212 15.0983 18.0726C15.0983 17.4241 15.356 16.8021 15.8146 16.3435C16.2732 15.8849 16.8952 15.6273 17.5437 15.6273C18.1923 15.6273 18.8142 15.8849 19.2728 16.3435C19.7314 16.8021 19.9891 17.4241 19.9891 18.0726C19.9891 18.7212 19.7314 19.3432 19.2728 19.8018C18.8142 20.2604 18.1923 20.518 17.5437 20.518ZM1.60238 3.3063C1.29715 3.29645 1.00772 3.16828 0.795288 2.94888C0.582856 2.72949 0.464081 2.43607 0.464081 2.13069C0.464081 1.8253 0.582856 1.53188 0.795288 1.31249C1.00772 1.09309 1.29715 0.964923 1.60238 0.955078L3.00969 0.955078C4.11255 0.955078 5.06624 1.72048 5.30589 2.79644L6.83791 9.69481C7.07755 10.7708 8.03124 11.5362 9.1341 11.5362H18.3189L20.082 4.48129H8.65603C8.35368 4.4675 8.06828 4.33768 7.85919 4.11883C7.65011 3.89999 7.53343 3.60897 7.53343 3.3063C7.53343 3.00363 7.65011 2.7126 7.85919 2.49376C8.06828 2.27492 8.35368 2.1451 8.65603 2.1313H20.082C20.4394 2.13119 20.7922 2.21258 21.1134 2.36927C21.4347 2.52597 21.716 2.75384 21.936 3.03557C22.1559 3.31731 22.3088 3.64548 22.3828 3.99515C22.4569 4.34482 22.4503 4.70678 22.3635 5.05351L20.6004 12.1059C20.4733 12.6148 20.1797 13.0666 19.7663 13.3894C19.3529 13.7122 18.8434 13.8875 18.3189 13.8874H9.1341C8.06401 13.8875 7.02586 13.5227 6.19112 12.8531C5.35639 12.1836 4.77498 11.2493 4.54293 10.2047L3.00969 3.3063H1.60238Z" fill="#181725"/>
</svg>
