<svg width="29" height="19" viewBox="0 0 29 19" fill="none" xmlns="http://www.w3.org/2000/svg">
<path d="M18.3239 14.2376C19.1118 14.2376 19.892 14.0824 20.62 13.7808C21.348 13.4793 22.0094 13.0374 22.5665 12.4802C23.1237 11.9231 23.5656 11.2616 23.8672 10.5337C24.1687 9.80571 24.3239 9.0255 24.3239 8.23756C24.3239 7.44963 24.1687 6.66942 23.8672 5.94146C23.5656 5.21351 23.1237 4.55207 22.5665 3.99492C22.0094 3.43777 21.348 2.99581 20.62 2.69429C19.892 2.39276 19.1118 2.23756 18.3239 2.23756C16.7326 2.23756 15.2065 2.8697 14.0813 3.99492C12.956 5.12014 12.3239 6.64627 12.3239 8.23756C12.3239 9.82886 12.956 11.355 14.0813 12.4802C15.2065 13.6054 16.7326 14.2376 18.3239 14.2376ZM24.6439 13.1436L28.2239 16.7236C28.3193 16.8159 28.3954 16.9263 28.4478 17.0483C28.5001 17.1704 28.5276 17.3016 28.5286 17.4344C28.5297 17.5672 28.5043 17.6988 28.4539 17.8217C28.4036 17.9445 28.3292 18.0561 28.2353 18.15C28.1413 18.2438 28.0296 18.318 27.9067 18.3682C27.7838 18.4183 27.6521 18.4436 27.5193 18.4423C27.3865 18.4411 27.2553 18.4134 27.1333 18.3609C27.0114 18.3084 26.9011 18.2321 26.8089 18.1366L23.2289 14.5566C21.6214 15.8044 19.5987 16.3927 17.5727 16.2018C15.5466 16.0108 13.6695 15.0549 12.3234 13.5286C10.9774 12.0024 10.2636 10.0205 10.3273 7.98649C10.3911 5.95247 11.2276 4.01919 12.6665 2.58021C14.1055 1.14123 16.0388 0.304731 18.0728 0.24099C20.1068 0.177248 22.0887 0.89106 23.615 2.23711C25.1412 3.58317 26.0971 5.46028 26.2881 7.48632C26.4791 9.51236 25.8907 11.535 24.6429 13.1426L24.6439 13.1436Z" fill="#181725"/>
<rect x="0.179352" y="0.237061" width="8.85499" height="2.39923" rx="1.19961" fill="#181725"/>
<rect x="0.179352" y="7.67529" width="6.46414" height="2.39923" rx="1.19961" fill="#181725"/>
<rect x="0.179352" y="15.1139" width="8.85499" height="2.39923" rx="1.19961" fill="#181725"/>
</svg>
