<svg width="24" height="20" viewBox="0 0 24 20" fill="none" xmlns="http://www.w3.org/2000/svg">
<path d="M13.3946 3.5986C12.9367 3.55005 12.4716 3.52223 12 3.51531C9.93951 3.52427 7.80355 4.01562 5.78175 4.95713C4.28058 5.68499 2.81828 6.71253 1.54834 7.98003C0.924641 8.62706 0.12862 9.56393 0 10.5635C0.0152 11.4294 0.963061 12.4981 1.54834 13.147C2.7392 14.3647 4.16342 15.3629 5.78175 16.1699C5.83675 16.1961 5.89194 16.2219 5.94727 16.2474L4.44582 18.818L6.48593 20L17.5143 1.17658L15.5505 0L13.3946 3.5986ZM18.0513 4.88245L16.5527 7.42856C17.2421 8.30661 17.6514 9.38939 17.6514 10.5635C17.6514 13.49 15.1209 15.8626 11.9985 15.8626C11.8636 15.8626 11.7327 15.8483 11.6001 15.8396L10.6084 17.5227C11.0658 17.5707 11.5282 17.6057 12 17.6117C14.0625 17.6026 16.1972 17.1056 18.2168 16.1699C19.718 15.442 21.1817 14.4145 22.4517 13.147C23.0754 12.5 23.8714 11.5631 24 10.5635C23.9848 9.69763 23.0369 8.62889 22.4517 7.98001C21.2608 6.7623 19.8351 5.76416 18.2168 4.95709C18.1622 4.93114 18.1063 4.90778 18.0513 4.88245ZM11.9986 5.26445C12.1355 5.26445 12.2713 5.26983 12.4058 5.27881L11.2441 7.25051C9.61387 7.57454 8.39063 8.93437 8.39063 10.5621C8.39063 10.971 8.46745 11.3624 8.60889 11.7253C8.60905 11.7257 8.60873 11.7263 8.60889 11.7267L7.44433 13.7042C6.75331 12.8253 6.34569 11.739 6.34569 10.5635C6.34571 7.63703 8.87617 5.26443 11.9986 5.26445ZM15.3779 9.42184L12.7603 13.8679C14.3818 13.5378 15.5962 12.1841 15.5962 10.5621C15.5962 10.1607 15.5145 9.779 15.3779 9.42184Z" fill="#BDBDBD"/>
</svg>
