<svg width="23" height="20" viewBox="0 0 23 20" fill="none" xmlns="http://www.w3.org/2000/svg">
<path d="M3.73819 9.00969L11.5623 16.8338L19.3864 9.00969C20.0781 8.31794 20.4668 7.37973 20.4668 6.40145C20.4668 5.42317 20.0781 4.48496 19.3864 3.79321C19.0439 3.4507 18.6372 3.179 18.1897 2.99363C17.7422 2.80826 17.2625 2.71285 16.7782 2.71285C15.7999 2.71285 14.8617 3.10147 14.1699 3.79321L11.5623 6.40084L8.95467 3.79444C8.26116 3.11198 7.32607 2.7312 6.35308 2.73504C5.38009 2.73889 4.44804 3.12705 3.75995 3.81498C3.07186 4.50291 2.68348 5.43487 2.6794 6.40786C2.67532 7.38084 3.05589 8.31602 3.73819 9.00969ZM10.6931 2.05357L11.5623 2.92278L12.4315 2.05357C13.0014 1.47865 13.6793 1.02196 14.4261 0.709714C15.173 0.397469 15.9742 0.23582 16.7837 0.234047C17.5932 0.232274 18.3951 0.390413 19.1434 0.699384C19.8916 1.00836 20.5715 1.46207 21.1439 2.03449C21.7163 2.60691 22.17 3.28675 22.479 4.03499C22.788 4.78323 22.9461 5.58513 22.9443 6.39465C22.9426 7.20417 22.7809 8.00536 22.4687 8.75224C22.1564 9.49912 21.6997 10.177 21.1248 10.7469L12.4327 19.4402C12.3185 19.5545 12.183 19.6452 12.0337 19.707C11.8845 19.7689 11.7245 19.8008 11.5629 19.8008C11.4013 19.8008 11.2414 19.7689 11.0921 19.707C10.9429 19.6452 10.8073 19.5545 10.6931 19.4402L1.99977 10.7481C1.41704 10.18 0.952896 9.50191 0.634279 8.75306C0.315662 8.00421 0.14891 7.19955 0.143696 6.38576C0.138482 5.57196 0.29491 4.76523 0.603905 4.01237C0.9129 3.2595 1.36831 2.57548 1.94372 1.99999C2.51913 1.42449 3.20309 0.968985 3.95591 0.659884C4.70874 0.350782 5.51545 0.19424 6.32924 0.199339C7.14304 0.204438 7.94772 0.371077 8.69661 0.689588C9.4455 1.0081 10.1237 1.47214 10.6919 2.0548L10.6931 2.05357Z" fill="#181725"/>
</svg>
