<svg width="18" height="18" viewBox="0 0 18 18" fill="none" xmlns="http://www.w3.org/2000/svg">
<path d="M17.734 9.47534C17.734 9.85117 17.5899 10.2145 17.3204 10.4776C17.0573 10.7469 16.6938 10.8972 16.3179 10.8972H10.6533V16.5597C10.6533 16.9355 10.5029 17.2989 10.2335 17.5619C9.97028 17.825 9.61311 17.9753 9.23714 17.9753C8.86117 17.9753 8.49774 17.825 8.23456 17.5619C7.96512 17.2989 7.81473 16.9355 7.81473 16.5597V10.8972H2.15015C1.77419 10.8972 1.41075 10.7469 1.14757 10.4776C0.884396 10.2145 0.734009 9.85117 0.734009 9.47534C0.734009 9.09951 0.884396 8.74248 1.14757 8.47313C1.41075 8.21005 1.77419 8.05972 2.15015 8.05972H7.81473V2.39723C7.81473 2.0214 7.96512 1.6581 8.23456 1.39502C8.49774 1.12567 8.86117 0.975342 9.23714 0.975342C9.61311 0.975342 9.97028 1.12567 10.2335 1.39502C10.5029 1.6581 10.6533 2.0214 10.6533 2.39723V8.05972H16.3179C16.6938 8.05972 17.0573 8.21005 17.3204 8.47313C17.5899 8.74248 17.734 9.09951 17.734 9.47534Z" fill="#53B175"/>
</svg>
