<svg width="17" height="17" viewBox="0 0 17 17" fill="none" xmlns="http://www.w3.org/2000/svg">
<path d="M16.1762 14.593L16.1753 14.5921L11.3029 9.89731L11.3026 9.89708L10.1984 8.84702L16.1752 3.10238C16.3002 2.98227 16.4019 2.84853 16.4659 2.70082C16.5289 2.55546 16.5672 2.39687 16.5672 2.23715C16.5672 2.06937 16.5424 1.90936 16.4652 1.76019C16.4028 1.61669 16.3147 1.47094 16.1995 1.36025L16.1996 1.3602L16.1976 1.35848C16.0737 1.25135 15.9353 1.15416 15.7825 1.09295C15.6291 1.03152 15.4523 1.00762 15.29 1.00762C15.1247 1.00762 14.9607 1.04429 14.7988 1.10415L14.7988 1.10413L14.7976 1.10463C14.6447 1.16583 14.5058 1.26322 14.3927 1.37193L14.4273 1.40797L14.3927 1.37193L7.51547 7.98199C7.40079 8.09222 7.31215 8.22639 7.24908 8.37186L7.24907 8.37185L7.24854 8.37317C7.18613 8.52913 7.14775 8.68736 7.14775 8.84721C7.14775 9.00693 7.18607 9.16552 7.24908 9.31088C7.31215 9.45635 7.40079 9.59053 7.51547 9.70076L14.3927 16.3108L14.3927 16.3108L14.3937 16.3117C14.6348 16.5313 14.951 16.6401 15.2779 16.6401C15.6071 16.6401 15.9232 16.5064 16.1509 16.2875C16.3909 16.0568 16.5184 15.7641 16.5186 15.4466C16.5311 15.1284 16.4035 14.8237 16.1762 14.593Z" fill="#181725" stroke="#181725" stroke-width="0.1"/>
<path d="M1.1467 3.05471L1.14761 3.05562L6.01999 7.7504L6.02023 7.75062L7.12448 8.80069L1.14766 14.5453C1.0227 14.6654 0.920998 14.7992 0.856967 14.9469C0.793949 15.0922 0.755637 15.2508 0.755637 15.4106C0.755637 15.5783 0.780474 15.7383 0.857667 15.8875C0.920061 16.031 1.00819 16.1768 1.12336 16.2875L1.12331 16.2875L1.12529 16.2892C1.24914 16.3964 1.38755 16.4935 1.54038 16.5548C1.69377 16.6162 1.87061 16.6401 2.03284 16.6401C2.19821 16.6401 2.36214 16.6034 2.52405 16.5436L2.52406 16.5436L2.52531 16.5431C2.67813 16.4819 2.81708 16.3845 2.93018 16.2758L2.89554 16.2397L2.93018 16.2758L9.8074 9.66572C9.92209 9.55549 10.0107 9.42132 10.0738 9.27585L10.0738 9.27585L10.0743 9.27453C10.1367 9.11858 10.1751 8.96034 10.1751 8.80049C10.1751 8.64077 10.1368 8.48219 10.0738 8.33682C10.0107 8.19135 9.92209 8.05718 9.8074 7.94695L2.93018 1.33689L2.9302 1.33688L2.9292 1.33597C2.6881 1.11643 2.3719 1.00761 2.045 1.00761C1.71577 1.00761 1.3997 1.14135 1.17196 1.36024C0.932005 1.59088 0.804507 1.88362 0.804241 2.20112C0.791799 2.51935 0.919342 2.82405 1.1467 3.05471Z" fill="#181725" stroke="#181725" stroke-width="0.1"/>
</svg>
