<svg width="21" height="16" viewBox="0 0 21 16" fill="none" xmlns="http://www.w3.org/2000/svg">
<path d="M2.09155 2.43062H1.99155V2.53062V13.2562V13.3562H2.09155H18.0916H18.1916V13.2562V2.53062V2.43062H18.0916H2.09155ZM2.09155 0.485498H18.0916C18.5931 0.485498 19.0757 0.699136 19.4326 1.08198C19.7898 1.46507 19.9916 1.98605 19.9916 2.53062V13.2562C19.9916 13.8008 19.7898 14.3218 19.4326 14.7049C19.0757 15.0877 18.5931 15.3014 18.0916 15.3014H2.09155C1.58999 15.3014 1.10743 15.0877 0.750481 14.7049C0.393313 14.3218 0.191553 13.8008 0.191553 13.2562V2.53062C0.191553 1.98605 0.393313 1.46507 0.750481 1.08198C1.10743 0.699136 1.58999 0.485498 2.09155 0.485498ZM11.0916 4.77574H16.0916C16.3279 4.77574 16.5561 4.87638 16.7255 5.05808C16.8951 5.24002 16.9916 5.48819 16.9916 5.74831C16.9916 6.00842 16.8951 6.25659 16.7255 6.43853C16.5561 6.62023 16.3279 6.72087 16.0916 6.72087H11.0916C10.8552 6.72087 10.627 6.62023 10.4576 6.43853C10.288 6.25659 10.1916 6.00842 10.1916 5.74831C10.1916 5.48819 10.288 5.24002 10.4576 5.05808C10.627 4.87638 10.8552 4.77574 11.0916 4.77574ZM11.0916 7.99343H16.0916C16.3279 7.99343 16.5561 8.09406 16.7255 8.27577C16.8951 8.45771 16.9916 8.70588 16.9916 8.96599C16.9916 9.2261 16.8951 9.47427 16.7255 9.65621C16.5561 9.83792 16.3279 9.93855 16.0916 9.93855H11.0916C10.8552 9.93855 10.627 9.83792 10.4576 9.65621C10.288 9.47427 10.1916 9.2261 10.1916 8.96599C10.1916 8.70588 10.288 8.45771 10.4576 8.27577C10.627 8.09406 10.8552 7.99343 11.0916 7.99343Z" fill="#181725" stroke="white" stroke-width="0.2"/>
<g clip-path="url(#clip0_26_1297)">
<path d="M6.84178 5.58122V6.14392C6.84178 6.44833 6.7042 6.7343 6.46571 6.93724C6.21806 7.1494 5.89702 7.26932 5.55764 7.26932C5.21826 7.26932 4.88805 7.1494 4.64957 6.93724C4.41109 6.7343 4.2735 6.44833 4.2735 6.14392V5.58122C4.2735 5.28603 4.41109 5.00006 4.64957 4.7879C4.88805 4.57573 5.21826 4.45581 5.55764 4.45581C5.89702 4.45581 6.21806 4.57573 6.46571 4.7879C6.7042 5.00006 6.84178 5.28603 6.84178 5.58122Z" fill="#181725"/>
<path d="M7.80492 8.902V9.36323C7.80492 9.58462 7.69485 9.80601 7.52058 9.96283C7.33713 10.1197 7.08947 10.2119 6.84182 10.2119H4.27353C4.0167 10.2119 3.76905 10.1197 3.59477 9.96283C3.41132 9.80601 3.31042 9.58462 3.31042 9.36323V8.87433C3.31042 8.56069 3.42049 8.24705 3.62229 7.98876C3.82408 7.73047 4.10843 7.52753 4.43864 7.40761C4.4845 7.39838 4.52119 7.38916 4.56705 7.38916C4.61291 7.38916 4.6496 7.39838 4.69546 7.40761H6.33733C6.35568 7.40761 6.36485 7.40761 6.37402 7.41683C6.37402 7.40761 6.38319 7.40761 6.38319 7.40761C6.52995 7.39838 6.62168 7.40761 6.63085 7.40761C6.9794 7.52753 7.27292 7.73047 7.48389 7.99799C7.68568 8.2655 7.80492 8.57914 7.80492 8.902Z" fill="#181725"/>
</g>
<defs>
<clipPath id="clip0_26_1297">
<rect width="6" height="7.68429" fill="white" transform="translate(3.09155 4.45581)"/>
</clipPath>
</defs>
</svg>
