<svg width="16" height="9" viewBox="0 0 16 9" fill="none" xmlns="http://www.w3.org/2000/svg">
<path d="M2.89138 8.49207L2.89141 8.49209L2.89319 8.49023L7.12478 4.09858L7.12523 4.0981L8.0321 3.14444L13.1701 8.49014C13.282 8.60656 13.4084 8.70317 13.5498 8.76449C13.6866 8.82377 13.837 8.86035 13.9896 8.86035C14.1456 8.86035 14.2987 8.83737 14.4431 8.7631C14.5762 8.70504 14.7137 8.62222 14.8196 8.51205L14.8197 8.51214L14.8231 8.50817C14.9219 8.39397 15.0137 8.26399 15.0719 8.11852C15.1306 7.97193 15.1528 7.80515 15.1528 7.65422C15.1528 7.49704 15.1179 7.34272 15.0624 7.19243L15.0624 7.19242L15.0614 7.18993C15.0031 7.04446 14.911 6.91341 14.8091 6.80735L8.85118 0.608656C8.74619 0.499427 8.61898 0.415594 8.48201 0.356216L8.48203 0.356179L8.47939 0.355123C8.33427 0.297054 8.18461 0.260352 8.03171 0.260352C7.87906 0.260352 7.7287 0.296928 7.59194 0.356216C7.45496 0.415594 7.32776 0.499427 7.22277 0.608656L1.26488 6.80735L1.26485 6.80733L1.26303 6.80932C1.05492 7.03788 0.952763 7.33656 0.952763 7.64327C0.952763 7.95463 1.0791 8.25305 1.28593 8.46824C1.50341 8.69451 1.78096 8.81601 2.08235 8.81654C2.38521 8.82808 2.67384 8.70649 2.89138 8.49207Z" fill="#181725" stroke="#181725" stroke-width="0.2"/>
</svg>
