<svg width="15" height="16" viewBox="0 0 15 16" fill="none" xmlns="http://www.w3.org/2000/svg">
<path d="M14.5447 13.192L14.5437 13.191L10.1519 8.9593L10.1517 8.95907L9.16007 8.01613L14.5437 2.84164C14.6567 2.73306 14.7488 2.61198 14.8068 2.4781C14.8639 2.34655 14.8986 2.20294 14.8986 2.05819C14.8986 1.90653 14.8761 1.7615 14.8061 1.62615C14.7497 1.49647 14.67 1.36455 14.5656 1.26422L14.5657 1.26417L14.5637 1.26246C14.4518 1.16569 14.3266 1.07771 14.1881 1.02227C14.0491 0.966595 13.8891 0.944995 13.7424 0.944995C13.5926 0.944995 13.4443 0.978215 13.2979 1.03231L13.2979 1.03229L13.2967 1.03279C13.1582 1.08824 13.0325 1.17641 12.9301 1.27475L6.73121 7.23288C6.62731 7.33274 6.54706 7.45424 6.48998 7.58589L6.48997 7.58588L6.48944 7.5872C6.43302 7.72819 6.39824 7.87145 6.39824 8.01632C6.39824 8.16107 6.43296 8.30468 6.48998 8.43622C6.54706 8.56787 6.62731 8.68938 6.73121 8.78924L12.9301 14.7474L12.9301 14.7474L12.9311 14.7483C13.1495 14.9471 13.4357 15.0455 13.7314 15.0455C14.0295 15.0455 14.3156 14.9245 14.5218 14.7263C14.739 14.5176 14.8545 14.2525 14.8548 13.9649C14.866 13.6766 14.7504 13.4007 14.5447 13.192Z" fill="#B3B3B3" stroke="#B3B3B3" stroke-width="0.1"/>
<path d="M0.990493 2.79865L0.99141 2.79955L5.38324 7.0313L5.38348 7.03153L6.37508 7.97447L0.991454 13.149C0.878481 13.2575 0.786367 13.3786 0.728328 13.5125C0.671302 13.644 0.636584 13.7877 0.636584 13.9324C0.636584 14.0841 0.659024 14.2291 0.729029 14.3644C0.785431 14.4941 0.865169 14.6261 0.96955 14.7264L0.969502 14.7264L0.971487 14.7281C1.08335 14.8249 1.20858 14.9129 1.34703 14.9683C1.48604 15.024 1.6461 15.0456 1.79276 15.0456C1.94254 15.0456 2.09089 15.0124 2.23723 14.9583L2.23723 14.9583L2.23848 14.9578C2.37693 14.9024 2.5027 14.8142 2.60501 14.7159L8.80395 8.75772C8.90785 8.65786 8.9881 8.53636 9.04517 8.40471L9.04519 8.40472L9.04572 8.4034C9.10213 8.26241 9.13691 8.11915 9.13691 7.97428C9.13691 7.82953 9.1022 7.68592 9.04517 7.55438C8.9881 7.42273 8.90785 7.30122 8.80395 7.20136L2.60501 1.24323L2.60502 1.24322L2.60403 1.24231C2.3857 1.04351 2.09945 0.945057 1.80371 0.945057C1.50565 0.945057 1.21953 1.06612 1.01336 1.26428C0.796175 1.47303 0.68066 1.73813 0.680394 2.02568C0.669151 2.31397 0.784711 2.58987 0.990493 2.79865Z" fill="#B3B3B3" stroke="#B3B3B3" stroke-width="0.1"/>
</svg>
