<svg width="270" height="290" viewBox="0 0 270 290" fill="none" xmlns="http://www.w3.org/2000/svg">
<path d="M269.604 281.994C269.604 281.994 237.223 289.903 197.28 289.903C157.337 289.903 124.957 281.994 124.957 281.994C124.957 281.994 157.337 274.084 197.28 274.084C237.223 274.084 269.604 281.994 269.604 281.994" fill="#CBB59B"/>
<path d="M176.088 278.395C176.417 277.837 176.657 277.07 176.246 276.276C175.048 273.958 170.257 265.92 169.592 262.981C169.077 260.698 169.835 257.226 170.2 255.789L156.832 246.21C153.383 248.879 147.686 254.774 146.499 256.013L176.088 278.395" fill="#46689C"/>
<path d="M173.804 281.305L144.214 258.923L146.499 256.013L176.088 278.395L173.804 281.305" fill="white"/>
<path d="M166.461 261.911L166.321 261.966C165.976 262.112 165.575 262.433 165.799 262.846C165.912 263.057 166.134 263.188 166.351 263.295C167.099 263.663 167.915 263.844 168.738 263.958C169.623 264.083 170.571 264.209 171.439 263.921C172.335 263.624 172.214 262.621 171.398 262.23C169.986 261.556 167.955 261.345 166.461 261.911" fill="white"/>
<path d="M167.46 265.152L167.32 265.207C166.975 265.353 166.574 265.674 166.798 266.087C166.911 266.299 167.133 266.429 167.35 266.537C168.098 266.904 168.914 267.084 169.737 267.2C170.622 267.323 171.571 267.45 172.438 267.162C173.334 266.865 173.212 265.861 172.397 265.471C170.985 264.797 168.954 264.584 167.46 265.152Z" fill="white"/>
<path d="M169.392 268.251L169.252 268.307C168.908 268.453 168.506 268.774 168.729 269.188C168.843 269.398 169.065 269.528 169.283 269.635C170.03 270.004 170.845 270.183 171.669 270.299C172.554 270.423 173.502 270.549 174.37 270.261C175.266 269.964 175.145 268.961 174.328 268.571C172.918 267.896 170.886 267.685 169.392 268.251" fill="white"/>
<path d="M209.98 208.622L192.261 189.95L153.05 244.46L172.241 259.031L209.98 208.622Z" fill="#6A262D"/>
<path d="M221.831 143.225L196.496 142.127C197.204 155.838 198.111 180.611 195.734 185.669C195.664 185.821 195.136 186.619 194.275 187.89L214.207 207.14C214.207 207.14 222.15 195.317 223.244 190.773C226.026 179.211 221.789 145.531 221.831 143.225" fill="#6A262D"/>
<path d="M172.593 142.49C172.593 142.49 192.46 198.62 197.314 211.879L201.601 267.44L223.037 263.948L222.787 257.6L220.679 203.465L204.099 143.714L179.035 142.746L172.593 142.49Z" fill="#864549"/>
<path d="M217.804 211.217C216.345 213.744 213.463 213.534 211.295 211.005C210.134 209.65 209.207 208.002 208.863 206.176C208.518 204.349 208.804 202.338 209.835 200.866C210.865 199.395 212.684 198.576 214.309 199.067C216.235 199.648 217.438 201.781 218.078 203.875C218.602 205.586 218.879 207.437 218.527 209.197C218.366 210 218.118 210.672 217.804 211.217" fill="#9C5B61"/>
<path d="M240.799 276.55C240.659 275.918 240.313 275.192 239.466 274.874C236.992 273.943 227.949 271.136 225.445 269.391C223.502 268.037 221.687 264.961 220.974 263.654L204.528 265.354C203.803 269.608 203.621 277.738 203.589 279.439L240.799 276.55Z" fill="#46689C"/>
<path d="M241.1 280.216L203.892 283.105L203.589 279.439L240.799 276.549L241.1 280.216" fill="white"/>
<path d="M222.396 270.662L222.331 270.794C222.176 271.13 222.099 271.633 222.546 271.793C222.775 271.874 223.029 271.825 223.262 271.761C224.068 271.541 224.794 271.138 225.482 270.681C226.222 270.189 227.011 269.658 227.454 268.873C227.916 268.061 227.139 267.397 226.268 267.645C224.763 268.075 223.114 269.256 222.396 270.662Z" fill="white"/>
<path d="M225.353 272.408L225.288 272.541C225.132 272.876 225.055 273.379 225.502 273.539C225.731 273.621 225.985 273.571 226.219 273.508C227.024 273.288 227.75 272.885 228.439 272.428C229.178 271.936 229.967 271.405 230.411 270.619C230.872 269.808 230.095 269.144 229.224 269.392C227.718 269.821 226.07 271.004 225.353 272.408Z" fill="white"/>
<path d="M228.904 273.435L228.839 273.568C228.683 273.903 228.606 274.407 229.053 274.566C229.282 274.648 229.535 274.598 229.769 274.535C230.574 274.315 231.3 273.912 231.989 273.454C232.729 272.964 233.517 272.432 233.962 271.647C234.422 270.836 233.646 270.171 232.775 270.419C231.269 270.848 229.621 272.031 228.904 273.435Z" fill="white"/>
<path d="M172.593 142.49C172.593 142.49 192.46 198.62 197.314 211.879L201.601 267.44L223.037 263.948L222.787 257.6L206.023 258.597C206.023 258.597 202.482 213.502 201.442 208.669C200.492 204.264 182.256 151.986 179.035 142.746L172.593 142.49" fill="#6A262D"/>
<path d="M218.684 55.1196C218.684 55.1196 225.995 59.0515 228.186 61.9461C230.378 64.8407 236.248 88.381 236.248 88.381C236.248 88.381 246.887 103.705 247.621 107.018C248.355 110.332 243.953 123.632 240.65 124.87C237.349 126.108 218.684 122.085 218.684 122.085L211.731 88.381L218.684 55.1196Z" fill="#F1435B"/>
<path d="M184.301 51.7175L170.572 55.6271C170.572 55.6271 163.517 109.775 163.517 113.08C163.517 116.385 165.734 126.841 165.734 126.841C165.734 126.841 161.591 138.398 163.517 140.599C165.442 142.801 186.884 148.537 205.329 148.145C223.774 147.752 228.143 140.676 228.178 139.361C228.242 136.884 223.824 129.1 223.824 129.1C223.824 129.1 228.418 121.614 228.178 118.586C227.937 115.56 218.684 55.1196 218.684 55.1196L211.012 53.7164L184.301 51.7175Z" fill="#F1435B"/>
<path d="M218.546 63.7397L220.29 85.6526L223.037 83.7109L218.546 63.7397Z" fill="#EF2D2E"/>
<path d="M211.012 53.7163C209.081 57.1287 205.577 61.4209 199.934 61.907C192.577 62.5481 186.633 55.1369 184.301 51.7173C187.675 50.7755 190.84 50.0421 190.84 50.0421L203.5 50.5902C203.5 50.5902 207.444 52.088 211.012 53.7163" fill="#F68672"/>
<path d="M204.465 54.8332L200.09 57.5918C200.09 57.5918 192.557 52.8891 190.837 50.039L190.739 48.9429L190.373 42.3901L203.645 38.4105C203.645 38.4105 203.41 40.7562 203.321 43.7503C203.207 47.543 203.331 52.3617 204.465 54.8332" fill="#F68672"/>
<path d="M203.321 43.7502C199.834 45.6394 193.543 48.9977 192.479 49.3509C191.904 49.5338 191.29 49.2992 190.739 48.9428L190.373 42.39L203.645 38.4104C203.645 38.4104 203.41 40.7561 203.321 43.7502" fill="#F36269"/>
<path d="M206.527 37.2324C206.527 37.2324 206.167 38.1408 204.685 39.3419H204.682C204.38 39.5885 204.027 39.8478 203.623 40.1135C202.077 41.1237 187.782 46.5295 185.632 46.1477C183.482 45.7651 181.767 38.2466 181.688 37.4607C181.201 32.6363 179.931 17.7377 179.931 17.7377C185.965 1.82401 204.631 11.0098 206.724 12.689C208.818 14.3682 206.527 37.2324 206.527 37.2324" fill="#F68672"/>
<path d="M204.683 39.3419C204.38 39.5885 204.027 39.8478 203.623 40.1135C202.077 41.1237 187.782 46.5295 185.632 46.1477C183.482 45.7651 181.767 38.2466 181.688 37.4607C182.893 40.7825 184.22 45.361 185.757 45.2831C188.073 45.1669 202.939 40.1644 204.683 39.3419Z" fill="#F9AA7F"/>
<path d="M181.438 22.4426C181.438 22.4426 183.768 18.8019 185.305 20.0651C186.844 21.3282 186.207 21.5191 186.207 21.5191L181.438 22.4426" fill="#F46F2E"/>
<path d="M201.761 18.9976C201.761 18.9976 196.33 14.1485 194.638 16.3328C193.651 17.6079 194.536 18.2777 194.536 18.2777L201.761 18.9976Z" fill="#F46F2E"/>
<path d="M182.982 26.8248C182.933 27.9488 183.462 28.885 184.162 28.9153C184.862 28.9455 185.468 28.0586 185.517 26.9346C185.566 25.8106 185.037 24.8744 184.337 24.8442C183.637 24.8139 183.03 25.7001 182.982 26.8248Z" fill="#121414"/>
<path d="M181.937 25.79C181.937 25.79 182.355 26.4096 183.072 26.7365C183.788 27.0627 184.531 26.9728 184.531 26.9728C184.531 26.9728 184.111 26.3531 183.396 26.027C182.679 25.7001 181.937 25.79 181.937 25.79" fill="white"/>
<path d="M198.558 25.2132C198.499 26.5782 197.761 27.656 196.911 27.6195C196.061 27.5821 195.419 26.4454 195.478 25.0796C195.537 23.7138 196.275 22.6368 197.126 22.6734C197.976 22.7108 198.617 23.8475 198.558 25.2132Z" fill="#121414"/>
<path d="M199.932 24.0709C199.932 24.0709 199.359 24.7765 198.458 25.097C197.557 25.4168 196.668 25.2299 196.668 25.2299C196.668 25.2299 197.24 24.5235 198.142 24.2038C199.043 23.884 199.932 24.0709 199.932 24.0709Z" fill="white"/>
<path d="M195.119 38.9695C193.817 39.5542 192.257 39.5327 190.972 38.9115C191.398 39.5932 192.018 40.0116 192.821 40.0163C193.626 40.0203 194.552 39.5391 195.119 38.9695Z" fill="#F14568"/>
<path d="M183.963 33.1119C183.715 33.6934 182.436 33.7069 181.105 33.1413C179.772 32.5757 178.893 31.6467 179.14 31.0644C179.387 30.4829 180.666 30.4702 181.999 31.0358C183.33 31.6005 184.209 32.5304 183.963 33.1119" fill="#F36269"/>
<path d="M201.111 31.0915C201.303 31.9928 199.785 33.0809 197.722 33.5216C195.657 33.9615 193.828 33.5876 193.635 32.6864C193.443 31.7844 194.96 30.697 197.025 30.2563C199.089 29.8156 200.919 30.1903 201.111 31.0915" fill="#F36269"/>
<path d="M198.29 35.0934C198.29 35.0934 198.196 35.2103 198.033 35.4131C197.87 35.6231 197.603 35.9015 197.24 36.2141C196.523 36.8418 195.338 37.5489 193.88 37.8512C192.422 38.1487 191.056 37.9673 190.148 37.6746C189.692 37.5298 189.337 37.3795 189.103 37.2514C188.873 37.1289 188.741 37.0581 188.741 37.0581C188.741 37.0581 188.887 37.0915 189.14 37.1496C189.393 37.2156 189.766 37.28 190.221 37.3349C191.133 37.4503 192.395 37.4463 193.741 37.1726C195.086 36.8918 196.247 36.3979 197.04 35.9318C197.436 35.7011 197.754 35.4943 197.959 35.3344C198.169 35.1809 198.29 35.0934 198.29 35.0934Z" fill="#F14568"/>
<path d="M192.518 31.6737C190.972 32.7794 188.762 32.8621 187.138 31.8742C187.344 33.1739 188.575 34.2875 189.89 34.247C191.206 34.2064 192.393 32.9846 192.518 31.6737Z" fill="#F36269"/>
<path d="M189.505 33.8835C189.151 33.8024 188.735 33.6497 188.347 33.3991C187.959 33.1485 187.63 32.7946 187.557 32.373C187.475 31.9586 187.697 31.6165 188.066 31.3715C188.319 31.2092 188.599 31.1345 188.871 31.1082C188.985 31.0971 189.089 31.0939 189.19 31.1011C189.202 30.9698 189.205 30.8266 189.212 30.6636C189.226 29.9787 189.188 29.06 189.002 28.0434C188.649 26.0754 187.874 24.5999 187.779 24.4297C187.778 24.6246 187.825 26.2743 188.177 28.1897C188.338 29.1101 188.546 29.935 188.723 30.5809C188.421 30.5498 188.086 30.5856 187.743 30.7423C187.454 30.868 187.175 31.0661 186.957 31.3779C186.739 31.7 186.655 32.1272 186.734 32.5098C186.866 33.3013 187.49 33.7968 188.004 34.0283C188.54 34.263 189.061 34.3314 189.476 34.2988C189.901 34.2789 190.225 34.1802 190.434 34.0927C190.59 34.0267 190.691 33.9718 190.736 33.9488C190.641 33.9639 190.159 34.0251 189.505 33.8835" fill="#F14568"/>
<path d="M212.916 22.1929C213.711 23.099 214.06 24.3915 213.817 25.5752C213.711 26.0827 213.529 26.5798 213.265 27.0205C212.918 27.625 212.421 28.1317 211.788 28.4332C211.623 27.6457 211.279 26.5901 210.96 26.1781C209.814 25.6237 208.563 25.875 207.674 26.7858C206.778 27.695 206.553 29.1849 207.124 30.3271C206.128 29.6486 205.465 28.5111 205.349 27.3124C205.127 28.0211 204.905 28.7235 204.683 29.4259C203.555 26.6681 204.053 23.3002 205.952 20.9958C205.23 21.0562 204.508 21.1087 203.794 21.17C204.784 20.9218 205.452 19.6348 205.208 18.5689C204.917 17.324 203.831 16.4275 202.727 15.7753C201.631 15.1238 200.422 14.5965 199.568 13.6419C199.502 14.0985 199.445 14.5471 199.386 15.0037C198.265 14.5877 197.433 13.4876 197.331 12.2976C196.379 14.33 194.444 15.8755 192.243 16.3615C192.256 15.5208 191.961 14.5742 191.966 13.7334C191.869 15.1214 191.153 16.4443 190.06 17.2922C188.96 18.1401 187.491 18.4965 186.125 18.2388C186.589 18.106 186.705 17.5523 186.681 17.0766C185.6 18.6826 183.779 19.7668 181.85 19.9506C179.923 20.1351 177.926 19.4136 176.562 18.0463C177.973 18.6731 179.847 17.6295 180.059 16.0935C180.113 15.7443 180.082 15.3911 180.012 15.0435C178.445 15.1898 176.83 14.8669 175.448 14.0961C175.746 14.116 176.038 14.0675 176.311 13.9569C176.973 13.6952 177.519 13.0994 177.823 12.4392C178.254 11.5014 178.322 10.4562 178.503 9.43879C178.677 8.42857 179.006 7.37143 179.799 6.71758C180.046 6.51394 180.35 6.37394 180.667 6.29599C179.791 5.66123 179.33 4.48636 179.374 2.78172C180.67 3.7633 182.531 3.5533 184.021 2.89865C185.51 2.2448 186.817 1.20674 188.328 0.591866C190.571 -0.313349 193.196 -0.16143 195.361 0.919578C195.8 0.678559 196.26 0.476525 196.739 0.35164C198.35 -0.0763088 200.143 0.193347 201.551 1.08822C204.202 0.460617 206.975 1.09379 208.824 3.09433C210.673 5.10203 211.338 8.12313 210.506 10.7187C211.212 10.2979 211.927 9.86992 212.634 9.44197C213.003 10.4601 212.736 11.6724 211.984 12.4432C213.388 12.1982 214.902 12.7303 215.834 13.8034C215.103 13.9251 214.363 14.046 213.631 14.1669C215.11 14.9886 216.029 16.7195 215.88 18.4114C215.73 20.0961 214.516 21.6425 212.916 22.1929" fill="#F35E23"/>
<path d="M215.88 18.4114C215.792 19.3795 215.354 20.3094 214.695 21.0229C214.198 21.5518 213.591 21.9615 212.916 22.193C213.711 23.099 214.06 24.3916 213.817 25.5752C213.711 26.0827 213.529 26.5798 213.265 27.0205C211.827 26.4764 210.655 25.1091 210.653 23.5484C209.861 22.7792 209.458 21.6377 209.598 20.5416C208.883 20.9767 208.361 21.7117 208.181 22.5231C208.343 20.1884 208.513 17.8475 208.676 15.5057C208.041 16.0521 207.397 16.5978 206.762 17.1443C207.68 14.9958 206.577 12.2085 204.438 11.2667C204.398 11.8156 204.351 12.3573 204.313 12.9062C202.45 12.4663 200.869 11.005 200.281 9.18905C199.845 10.0577 199.418 10.9191 198.983 11.7798C198.464 10.8698 197.946 9.95266 197.426 9.03472C196.174 10.0362 194.922 11.0377 193.669 12.0471C193.329 11.0838 192.988 10.1205 192.647 9.16439C192.344 11.5539 190.562 13.6873 188.257 14.4064C188.206 13.6539 188.147 12.8942 188.096 12.1425C187.075 14.3316 184.655 15.8032 182.234 15.6902C182.638 14.6601 183.035 13.6213 183.432 12.5904C181.431 14.1025 178.724 14.6052 176.311 13.9569C176.973 13.6952 177.519 13.0994 177.823 12.4392C178.093 11.8538 178.22 11.2325 178.324 10.5938C178.386 10.2136 178.433 9.8254 178.504 9.43881C178.677 8.4286 179.006 7.37146 179.799 6.7176C180.046 6.51397 180.351 6.37397 180.667 6.29601C179.791 5.66125 179.33 4.48638 179.374 2.78175C180.67 3.76333 182.531 3.55333 184.021 2.89868C185.51 2.24482 186.817 1.20677 188.328 0.59189C190.571 -0.313325 193.196 -0.161405 195.361 0.919603C195.8 0.678583 196.26 0.476549 196.739 0.351664C198.35 -0.0762844 200.143 0.193372 201.551 1.08825C204.202 0.460641 206.975 1.09381 208.824 3.09435C210.673 5.10205 211.338 8.12316 210.506 10.7187C211.212 10.2979 211.927 9.86995 212.634 9.442C213.004 10.4602 212.736 11.6724 211.984 12.4432C213.388 12.1982 214.902 12.7304 215.835 13.8034C215.103 13.9251 214.363 14.046 213.631 14.1669C215.11 14.9886 216.029 16.7195 215.88 18.4114" fill="#F46F2E"/>
<path d="M215.88 18.4113C215.792 19.3793 215.354 20.3092 214.695 21.0227C213.029 20.1087 211.966 18.1575 212.156 16.2532C211.844 16.7289 211.533 17.2054 211.214 17.681C211.141 16.3542 211.077 15.0274 211.004 13.7014C210.433 14.3346 209.854 14.967 209.285 15.6009C209.267 13.3506 208.469 11.1043 207.062 9.34479C206.485 9.74888 205.902 10.1442 205.326 10.5475C205.999 9.32171 206.7 7.96788 206.431 6.6021C206.21 5.51314 205.331 4.58724 204.257 4.31202C203.183 4.036 201.964 4.4194 201.247 5.26734C201.263 4.21259 200.449 3.20554 199.409 3.00748C198.378 2.80225 197.241 3.42588 196.855 4.40428C195.473 3.45691 193.525 3.73929 192.109 4.64212C190.692 5.54495 189.69 6.95527 188.72 8.32025C188.587 7.34265 188.453 6.35788 188.32 5.37313C187.648 7.80718 185.303 9.67251 182.781 9.77671C183.322 8.95899 183.855 8.13253 184.395 7.31482C182.323 8.32662 180.302 9.41717 178.324 10.5936C178.386 10.2134 178.433 9.82523 178.504 9.43865C178.677 8.42843 179.006 7.37129 179.799 6.71744C180.046 6.5138 180.351 6.3738 180.667 6.29585C179.791 5.66108 179.33 4.48622 179.374 2.78158C180.67 3.76316 182.531 3.55316 184.021 2.89851C185.51 2.24466 186.818 1.2066 188.328 0.591723C190.571 -0.313492 193.196 -0.161572 195.361 0.919436C195.8 0.678417 196.26 0.476382 196.739 0.351498C198.35 -0.0764511 200.143 0.193205 201.551 1.08808C204.202 0.460474 206.975 1.09365 208.824 3.09419C210.673 5.10189 211.338 8.12299 210.506 10.7185C211.212 10.2977 211.927 9.86978 212.634 9.44183C213.004 10.46 212.736 11.6723 211.984 12.443C213.388 12.198 214.902 12.7302 215.835 13.8033C215.103 13.925 214.363 14.0459 213.631 14.1668C215.11 14.9885 216.029 16.7193 215.88 18.4113" fill="#F68640"/>
<path d="M204.437 37.7136C207.337 37.6118 209.516 35.9883 210.705 34.6011C210.972 34.2885 211.189 33.9878 211.353 33.7197C212.243 32.2585 212.705 27.0762 210.633 25.778C209.18 24.8688 208.042 26.0468 207.493 26.8351V26.8383C207.258 27.1732 207.129 27.4373 207.129 27.4373L204.437 37.7136Z" fill="#F9AA7F"/>
<path d="M204.437 37.7136C207.337 37.6118 209.516 35.9883 210.705 34.6011C210.809 34.4587 210.9 34.3234 210.978 34.1938C211.868 32.7326 212.331 27.551 210.257 26.2537C209.081 25.5163 208.111 26.1487 207.493 26.8351V26.8383C207.258 27.1732 207.129 27.4373 207.129 27.4373L204.437 37.7136Z" fill="#F68672"/>
<path d="M211.125 29.9309C211.213 30.3509 211.127 30.7804 210.973 31.1845C210.317 32.9011 208.519 34.1555 206.8 35.3176C207.338 34.4943 207.564 33.5486 207.502 32.6147C207.48 32.2894 207.424 31.9648 207.435 31.6403C207.479 30.3334 210.601 27.4483 211.125 29.9309" fill="#F36269"/>
<path d="M205.942 35.7766L206.039 35.7273C206.1 35.6931 206.199 35.6493 206.313 35.5785C206.543 35.4393 206.862 35.2134 207.168 34.8722C207.472 34.5317 207.755 34.0712 207.903 33.5183C208.04 32.9663 208.045 32.3164 207.773 31.6785C207.745 31.5981 207.703 31.521 207.662 31.4446L207.631 31.3873L207.627 31.381L207.628 31.3826L207.626 31.3818H207.626L207.631 31.3722L207.661 31.3237L207.721 31.2267L207.845 31.0381C208.014 30.7892 208.194 30.5569 208.378 30.3421C208.563 30.1266 208.753 29.9293 208.94 29.7503C209.129 29.5721 209.31 29.4051 209.488 29.2826C209.666 29.1601 209.859 29.0829 210.037 29.0678C210.217 29.0559 210.383 29.1028 210.493 29.1641C210.606 29.2261 210.666 29.3025 210.69 29.3582L210.715 29.4465L210.714 29.3534C210.706 29.2922 210.663 29.1991 210.552 29.1092C210.443 29.0225 210.269 28.9366 210.033 28.9207C209.799 28.9087 209.542 28.9764 209.31 29.0941C209.076 29.2126 208.865 29.3637 208.641 29.5308C208.42 29.6994 208.194 29.8903 207.976 30.1043C207.758 30.3183 207.545 30.5545 207.352 30.8122L207.209 31.0095L207.14 31.1113L207.049 31.2545L206.986 31.3555L207.039 31.4621L207.117 31.6133L207.213 31.8161C207.449 32.3697 207.482 32.9401 207.412 33.4468C207.329 33.9535 207.138 34.3989 206.914 34.7489C206.688 35.0997 206.438 35.3566 206.25 35.5252C206.157 35.6096 206.074 35.6676 206.022 35.7114L205.942 35.7766" fill="#D03B58"/>
<path d="M176.342 194.371C176.342 197.45 168.345 198.614 162.879 198.493C157.627 198.607 150.062 197.539 149.465 194.735C149.429 194.616 149.417 194.496 149.417 194.371C149.417 191.769 152.4 177.09 153.803 170.335C154.238 168.264 154.519 166.933 154.519 166.933H171.233C171.233 166.933 171.513 168.264 171.949 170.335C173.352 177.09 176.342 191.769 176.342 194.371" fill="#46689C"/>
<path d="M171.949 170.335C171.513 168.264 171.233 166.933 171.233 166.933H168.261H154.519C154.519 166.933 154.238 168.264 153.803 170.335H169.032C170.71 177.833 173.138 189.382 172.659 191.178C171.985 193.75 160.289 198.249 149.465 194.735C150.062 197.539 157.627 198.607 162.879 198.493C168.345 198.614 176.342 197.45 176.342 194.371C176.342 191.769 173.352 177.09 171.949 170.335Z" fill="#2C507E"/>
<path d="M172.661 168.315H153.093V163.849H172.661V168.315Z" fill="#46689C"/>
<path d="M168.827 184.799H153.94V178.135H168.827V184.799Z" fill="white"/>
<path d="M170.572 153.672C170.17 154.093 169.469 154.19 168.967 153.895C168.522 156.372 168.077 158.85 167.631 161.327C167.526 161.913 167.345 162.595 166.79 162.811C166.061 163.093 165.364 162.355 164.954 161.689C163.987 160.116 163.357 158.461 162.701 156.789H160.461C160.577 157.822 161.378 159.152 161.77 159.84C162.163 160.529 164.351 166.914 164.489 166.941C165.943 167.234 167.463 167.197 168.9 166.83C168.513 162.392 169.086 157.872 170.572 153.672Z" fill="#2AB57E"/>
<path d="M173.759 148.087C174.679 146.796 174.278 144.764 172.937 143.918C171.596 143.073 169.59 143.586 168.821 144.973C168.521 143.606 167.156 142.556 165.757 142.616C164.359 142.676 163.089 143.84 162.908 145.228C161.969 143.68 159.955 142.875 158.209 143.349C156.461 143.823 155.131 145.536 155.103 147.347C154.15 147.109 153.096 147.121 152.235 147.595C151.373 148.067 150.767 149.068 150.948 150.034C151.126 151 152.228 151.746 153.144 151.391C152.294 152.056 152.034 153.368 152.568 154.307C153.102 155.245 154.361 155.695 155.368 155.305C154.061 157.119 155.095 160.101 157.244 160.719C159.442 161.349 161.628 159.422 161.727 157.259L161.763 157.327C161.774 158.362 162.423 159.335 163.293 159.907C164.207 160.506 165.322 160.723 166.414 160.77C169.469 160.898 174.365 158.841 173.198 155.005L173.196 154.922C175.12 154.741 177.253 154.204 177.498 151.863C177.708 149.849 175.775 147.896 173.759 148.087" fill="#2EAE7D"/>
<path d="M158.724 185.612C158.652 189.437 158.571 192.899 158.515 195.198C158.475 196.794 157.428 198.058 156.147 198.058H143.719C142.438 198.058 141.391 196.794 141.351 195.198C141.294 192.899 141.214 189.437 141.142 185.612C141.053 180.956 140.988 175.776 141.005 171.541C141.029 166.994 141.142 163.551 141.423 162.989C142.374 161.152 145.612 159.316 145.612 159.316L146.377 143.969H153.481L154.255 159.316C154.255 159.316 157.492 161.152 158.443 162.989C158.724 163.551 158.837 166.994 158.853 171.541C158.878 175.776 158.812 180.956 158.724 185.612" fill="#C07E53"/>
<path d="M153.571 145.259H146.294C145.763 145.259 145.332 144.829 145.332 144.298V143.47C145.332 142.938 145.763 142.508 146.294 142.508H153.571C154.103 142.508 154.533 142.938 154.533 143.47V144.298C154.533 144.829 154.103 145.259 153.571 145.259Z" fill="#363950"/>
<path d="M158.724 185.612H141.142C141.053 180.956 140.988 175.776 141.005 171.541H158.853C158.878 175.776 158.812 180.956 158.724 185.612Z" fill="#F68640"/>
<path d="M198.759 157.258V192.773H174.014V157.258H198.759Z" fill="#5B9FDC"/>
<path d="M182.302 157.259H176.892V155.074H182.302V157.259Z" fill="#363950"/>
<path d="M198.759 174.087V179.673L198.584 179.738C196.337 180.561 194.218 181.991 193.05 184.086C192.227 185.552 191.771 187.42 190.277 188.19C188.543 189.083 186.513 187.963 184.708 187.21C181.346 185.792 177.47 185.704 174.014 186.848V168.18C175.894 169.044 178.165 169.172 180.156 168.53C183.418 167.479 185.917 164.748 187.447 161.688C188.152 160.27 188.684 158.787 189.116 157.258H192.245C191.953 160.912 192.618 164.642 194.212 167.94C195.321 170.252 196.88 172.342 198.759 174.087" fill="white"/>
<path d="M179.225 173.852L180.296 176.415L181.367 173.852H183.082V178.76H181.668V176.071L180.828 178.284H179.764L178.924 176.071V178.76H177.509V173.852H179.225Z" fill="#363950"/>
<path d="M185.41 173.852V178.76H183.785V173.852H185.41Z" fill="#363950"/>
<path d="M187.735 173.852V177.409H189.78V178.76H186.111V173.852H187.735Z" fill="#363950"/>
<path d="M193.324 178.76L192.302 177.073L191.826 177.605V178.76H190.202V173.852H191.826V175.554L193.289 173.852H195.159L193.409 175.826L195.264 178.76H193.324" fill="#363950"/>
<path d="M193.972 196.088C194.308 196.174 194.658 196.257 195.001 196.198C195.343 196.139 195.679 195.903 195.747 195.561C195.835 195.115 195.462 194.722 195.106 194.438C193.98 193.538 192.708 192.821 191.354 192.325C193.367 192.542 195.442 192.163 197.249 191.246C197.834 190.949 198.475 190.305 198.133 189.745C197.924 189.406 197.467 189.34 197.07 189.32C195.525 189.246 193.972 189.343 192.448 189.611C193.712 188.941 194.673 187.725 195.037 186.341C195.135 185.968 195.153 185.493 194.83 185.281C194.532 185.085 194.135 185.246 193.826 185.425C192.603 186.132 191.529 187.096 190.695 188.235C191.074 187.703 191.467 187.135 191.515 186.483C191.561 185.832 191.107 185.097 190.453 185.097C189.942 185.097 189.539 185.515 189.225 185.917C188.256 187.151 185.394 191.369 186.358 192.987C186.814 193.753 188.958 194.346 189.757 194.678C191.126 195.246 192.536 195.717 193.972 196.088" fill="#2EAE7D"/>
<path d="M184.049 188.188C182.693 188.103 181.353 188.458 180.064 188.926C179.876 188.993 179.68 189.072 179.493 189.148C179.353 189.197 179.224 189.251 179.088 189.304C175.916 190.564 172.652 192.012 169.569 193.722C169.39 193.82 169.21 193.921 169.032 194.026C167.174 195.075 165.387 196.228 163.725 197.49C161.353 199.293 162.224 200.538 164.846 200.461C165.778 200.434 166.711 200.385 167.647 200.309C167.849 200.301 168.057 200.282 168.261 200.268C170.349 200.095 172.437 199.819 174.503 199.444C174.702 199.404 174.902 199.365 175.102 199.326C176.155 199.123 177.205 198.893 178.241 198.635C178.439 198.587 178.632 198.536 178.828 198.481C179.993 198.181 181.148 197.844 182.291 197.479C183.143 197.204 184.01 196.896 184.808 196.491C185.012 196.389 185.211 196.283 185.394 196.168C185.826 195.914 186.232 195.621 186.601 195.284C187.792 194.177 188.537 192.442 188.035 190.895C187.51 189.269 185.751 188.298 184.049 188.188" fill="#F68640"/>
<path d="M167.159 198.197C167.319 198.897 167.481 199.605 167.647 200.309C167.849 200.301 168.057 200.282 168.261 200.268C168.094 199.534 167.927 198.8 167.759 198.065C167.662 197.684 167.071 197.813 167.159 198.197" fill="#F46F2E"/>
<path d="M169.569 193.722C169.39 193.82 169.21 193.921 169.032 194.026C169.506 195.46 169.914 196.917 170.255 198.388C170.342 198.772 170.942 198.641 170.855 198.257C170.502 196.726 170.073 195.212 169.569 193.722" fill="#F46F2E"/>
<path d="M173.142 195.073C173.722 196.487 174.176 197.952 174.503 199.444C174.702 199.404 174.902 199.365 175.101 199.325C174.767 197.778 174.289 196.261 173.684 194.795C173.534 194.429 172.992 194.707 173.142 195.073Z" fill="#F46F2E"/>
<path d="M176.685 192.566C177.424 194.526 177.944 196.565 178.241 198.635C178.439 198.587 178.632 198.536 178.828 198.481C178.522 196.368 177.989 194.292 177.231 192.283C177.095 191.918 176.549 192.201 176.685 192.566" fill="#F46F2E"/>
<path d="M180.064 188.926C179.876 188.993 179.68 189.072 179.493 189.148C180.316 191.09 180.819 193.155 180.966 195.266C180.997 195.65 181.606 195.685 181.578 195.288C181.423 193.098 180.909 190.947 180.064 188.926Z" fill="#F46F2E"/>
<path d="M183.9 190.998C183.741 191.085 183.711 191.256 183.764 191.412C184.351 193.043 184.708 194.758 184.808 196.49C185.012 196.389 185.211 196.283 185.394 196.168C185.261 194.451 184.896 192.76 184.314 191.133C184.254 190.977 184.031 190.93 183.9 190.998Z" fill="#F46F2E"/>
<path d="M169.428 166.328C169.374 165.984 169.31 165.631 169.119 165.341C168.928 165.051 168.578 164.836 168.237 164.91C167.794 165.006 167.582 165.506 167.463 165.945C167.086 167.337 166.935 168.79 167.02 170.229C166.417 168.296 165.242 166.544 163.682 165.253C163.177 164.835 162.329 164.503 161.953 165.041C161.725 165.366 161.847 165.813 161.987 166.183C162.533 167.632 163.243 169.017 164.096 170.308C162.977 169.417 161.479 169.018 160.066 169.237C159.684 169.296 159.241 169.468 159.176 169.849C159.115 170.2 159.421 170.5 159.707 170.712C160.844 171.552 162.156 172.152 163.533 172.464C162.894 172.328 162.216 172.194 161.599 172.41C160.983 172.627 160.491 173.337 160.751 173.936C160.954 174.405 161.498 174.608 161.993 174.736C163.512 175.132 168.521 176.075 169.619 174.547C170.14 173.823 169.829 171.62 169.815 170.755C169.789 169.273 169.661 167.792 169.428 166.328" fill="#2EAE7D"/>
<path d="M166.139 178.577C166.601 179.855 167.462 180.942 168.405 181.937C168.542 182.084 168.692 182.231 168.836 182.373C168.937 182.483 169.039 182.58 169.14 182.682C171.56 185.089 174.191 187.504 176.987 189.65C177.147 189.775 177.313 189.902 177.48 190.021C179.183 191.307 180.952 192.488 182.773 193.508C185.371 194.965 186.166 193.67 185.05 191.296C184.654 190.451 184.237 189.615 183.795 188.787C183.706 188.607 183.605 188.423 183.511 188.24C182.52 186.395 181.436 184.59 180.267 182.845C180.152 182.678 180.036 182.511 179.921 182.343C179.313 181.457 178.686 180.588 178.035 179.738C177.913 179.576 177.789 179.419 177.66 179.263C176.921 178.312 176.151 177.388 175.362 176.486C174.77 175.814 174.141 175.142 173.451 174.57C173.276 174.425 173.1 174.285 172.922 174.163C172.516 173.868 172.086 173.612 171.629 173.407C170.14 172.757 168.252 172.766 167.033 173.843C165.751 174.972 165.562 176.973 166.139 178.577" fill="#F68640"/>
<path d="M182.051 190.078C182.63 189.651 183.215 189.22 183.795 188.788C183.706 188.607 183.606 188.423 183.511 188.24C182.905 188.686 182.299 189.134 181.692 189.579C181.38 189.82 181.735 190.311 182.051 190.078" fill="#F46F2E"/>
<path d="M176.987 189.65C177.147 189.775 177.313 189.902 177.48 190.021C178.605 189.015 179.779 188.06 180.992 187.162C181.31 186.928 180.95 186.43 180.633 186.664C179.37 187.597 178.153 188.595 176.987 189.65" fill="#F46F2E"/>
<path d="M176.801 185.836C177.868 184.739 179.029 183.74 180.267 182.846C180.152 182.678 180.036 182.511 179.921 182.343C178.634 183.267 177.435 184.31 176.33 185.45C176.054 185.733 176.525 186.12 176.801 185.836" fill="#F46F2E"/>
<path d="M173.09 183.584C174.593 182.126 176.255 180.836 178.035 179.738C177.913 179.576 177.789 179.419 177.66 179.263C175.845 180.385 174.153 181.702 172.613 183.198C172.334 183.468 172.81 183.855 173.09 183.584Z" fill="#F46F2E"/>
<path d="M168.405 181.937C168.542 182.084 168.692 182.231 168.837 182.373C170.289 180.844 171.982 179.559 173.86 178.582C174.199 178.403 173.989 177.829 173.635 178.013C171.689 179.028 169.921 180.357 168.405 181.937" fill="#F46F2E"/>
<path d="M168.776 177.595C168.919 177.704 169.087 177.664 169.21 177.553C170.472 176.365 171.903 175.354 173.451 174.57C173.276 174.425 173.1 174.285 172.922 174.163C171.4 174.968 169.995 175.978 168.734 177.16C168.616 177.278 168.66 177.502 168.776 177.595" fill="#F46F2E"/>
<path d="M197.766 180.85C197.766 181.39 197.4 181.827 196.948 181.827H195.757C195.306 181.827 194.939 181.39 194.939 180.85V169.819C194.939 169.279 195.306 168.842 195.757 168.842H196.948C197.4 168.842 197.766 169.279 197.766 169.819V180.85ZM197.766 197.081C197.766 197.621 197.4 198.058 196.948 198.058H195.757C195.306 198.058 194.939 197.621 194.939 197.081V186.05C194.939 185.51 195.306 185.073 195.757 185.073H196.948C197.4 185.073 197.766 185.51 197.766 186.05V197.081ZM192.41 180.85C192.41 181.39 192.044 181.827 191.591 181.827H190.401C189.949 181.827 189.583 181.39 189.583 180.85V169.819C189.583 169.279 189.949 168.842 190.401 168.842H191.591C192.044 168.842 192.41 169.279 192.41 169.819V180.85ZM192.41 197.081C192.41 197.621 192.044 198.058 191.591 198.058H190.401C189.949 198.058 189.583 197.621 189.583 197.081V186.05C189.583 185.51 189.949 185.073 190.401 185.073H191.591C192.044 185.073 192.41 185.51 192.41 186.05V197.081ZM187.053 180.85C187.053 181.39 186.687 181.827 186.235 181.827H185.045C184.593 181.827 184.227 181.39 184.227 180.85V169.819C184.227 169.279 184.593 168.842 185.045 168.842H186.235C186.687 168.842 187.053 169.279 187.053 169.819V180.85ZM187.053 197.081C187.053 197.621 186.687 198.058 186.235 198.058H185.045C184.593 198.058 184.227 197.621 184.227 197.081V186.05C184.227 185.51 184.593 185.073 185.045 185.073H186.235C186.687 185.073 187.053 185.51 187.053 186.05V197.081ZM181.697 180.85C181.697 181.39 181.331 181.827 180.88 181.827H179.689C179.236 181.827 178.87 181.39 178.87 180.85V169.819C178.87 169.279 179.236 168.842 179.689 168.842H180.88C181.331 168.842 181.697 169.279 181.697 169.819V180.85ZM181.697 197.081C181.697 197.621 181.331 198.058 180.88 198.058H179.689C179.236 198.058 178.87 197.621 178.87 197.081V186.05C178.87 185.51 179.236 185.073 179.689 185.073H180.88C181.331 185.073 181.697 185.51 181.697 186.05V197.081ZM176.342 180.85C176.342 181.39 175.975 181.827 175.522 181.827H174.332C173.88 181.827 173.514 181.39 173.514 180.85V169.819C173.514 169.279 173.88 168.842 174.332 168.842H175.522C175.975 168.842 176.342 169.279 176.342 169.819V180.85ZM176.342 197.081C176.342 197.621 175.975 198.058 175.522 198.058H174.332C173.88 198.058 173.514 197.621 173.514 197.081V186.05C173.514 185.51 173.88 185.073 174.332 185.073H175.522C175.975 185.073 176.342 185.51 176.342 186.05V197.081ZM170.984 180.85C170.984 181.39 170.618 181.827 170.166 181.827H168.976C168.523 181.827 168.158 181.39 168.158 180.85V169.819C168.158 169.279 168.523 168.842 168.976 168.842H170.166C170.618 168.842 170.984 169.279 170.984 169.819V180.85ZM170.984 197.081C170.984 197.621 170.618 198.058 170.166 198.058H168.976C168.523 198.058 168.158 197.621 168.158 197.081V186.05C168.158 185.51 168.523 185.073 168.976 185.073H170.166C170.618 185.073 170.984 185.51 170.984 186.05V197.081ZM165.629 180.85C165.629 181.39 165.262 181.827 164.81 181.827H163.619C163.167 181.827 162.801 181.39 162.801 180.85V169.819C162.801 169.279 163.167 168.842 163.619 168.842H164.81C165.262 168.842 165.629 169.279 165.629 169.819V180.85ZM165.629 197.081C165.629 197.621 165.262 198.058 164.81 198.058H163.619C163.167 198.058 162.801 197.621 162.801 197.081V186.05C162.801 185.51 163.167 185.073 163.619 185.073H164.81C165.262 185.073 165.629 185.51 165.629 186.05V197.081ZM160.271 180.85C160.271 181.39 159.905 181.827 159.453 181.827H158.263C157.812 181.827 157.445 181.39 157.445 180.85V169.819C157.445 169.279 157.812 168.842 158.263 168.842H159.453C159.905 168.842 160.271 169.279 160.271 169.819V180.85ZM160.271 197.081C160.271 197.621 159.905 198.058 159.453 198.058H158.263C157.812 198.058 157.445 197.621 157.445 197.081V186.05C157.445 185.51 157.812 185.073 158.263 185.073H159.453C159.905 185.073 160.271 185.51 160.271 186.05V197.081ZM154.915 180.85C154.915 181.39 154.549 181.827 154.097 181.827H152.907C152.454 181.827 152.088 181.39 152.088 180.85V169.819C152.088 169.279 152.454 168.842 152.907 168.842H154.097C154.549 168.842 154.915 169.279 154.915 169.819V180.85ZM154.915 197.081C154.915 197.621 154.549 198.058 154.097 198.058H152.907C152.454 198.058 152.088 197.621 152.088 197.081V186.05C152.088 185.51 152.454 185.073 152.907 185.073H154.097C154.549 185.073 154.915 185.51 154.915 186.05V197.081ZM149.559 180.85C149.559 181.39 149.193 181.827 148.74 181.827H147.55C147.099 181.827 146.732 181.39 146.732 180.85V169.819C146.732 169.279 147.099 168.842 147.55 168.842H148.74C149.193 168.842 149.559 169.279 149.559 169.819V180.85ZM149.559 197.081C149.559 197.621 149.193 198.058 148.74 198.058H147.55C147.099 198.058 146.732 197.621 146.732 197.081V186.05C146.732 185.51 147.099 185.073 147.55 185.073H148.74C149.193 185.073 149.559 185.51 149.559 186.05V197.081ZM144.202 180.85C144.202 181.39 143.837 181.827 143.385 181.827H142.194C141.742 181.827 141.376 181.39 141.376 180.85V169.819C141.376 169.279 141.742 168.842 142.194 168.842H143.385C143.837 168.842 144.202 169.279 144.202 169.819V180.85ZM144.202 197.081C144.202 197.621 143.837 198.058 143.385 198.058H142.194C141.742 198.058 141.376 197.621 141.376 197.081V186.05C141.376 185.51 141.742 185.073 142.194 185.073H143.385C143.837 185.073 144.202 185.51 144.202 186.05V197.081ZM169.471 165.378H137.767C137.767 165.378 139.004 199.612 139.442 200.278C139.879 200.944 161.954 202.065 169.471 202.054C177.02 202.043 199.189 200.855 199.626 200.189C200.063 199.523 201.174 165.378 201.174 165.378H169.471" fill="#DCDDDA"/>
<path d="M204.064 166.981H134.878V160.716H204.064V166.981Z" fill="#BCBEBC"/>
<path d="M176.536 163.78C175.457 163.78 174.713 162.255 175.088 160.821C175.63 158.759 176.267 156.08 176.425 154.353C176.711 151.213 174.187 144.283 174.187 144.283H177.501C177.501 144.283 179.663 151.775 179.595 154.032C179.546 155.658 178.55 160 177.998 162.301C177.784 163.188 177.197 163.78 176.536 163.78" fill="#DCDDDA"/>
<path d="M185.848 152.822C184.512 153.513 180.807 143.81 180.807 143.81L177.922 143.823L179.091 148.022L177.67 154.213C177.67 154.213 176.46 154.464 174.961 154.684C174.775 154.713 174.584 154.739 174.39 154.765C173.493 154.887 172.536 154.982 171.701 155C171.621 155.006 171.538 155.005 171.46 155.009C171.042 155.008 169.712 154.793 169.54 154.654L169.575 149.703C169.575 149.703 164.308 145.362 163.931 144.395C163.783 144.011 165.679 135.57 165.917 134.637L170.27 133.559C170.27 133.559 178.296 138.169 178.737 138.452C180.334 139.48 181.977 140.701 183.03 141.916C183.479 142.43 183.818 142.944 184.001 143.442C185.271 146.874 187.181 152.131 185.848 152.822" fill="#F68672"/>
<path d="M171.701 155C171.621 155.006 171.538 155.005 171.46 155.009C171.487 154.805 171.528 154.537 171.574 154.214C171.675 153.484 171.797 152.494 171.907 151.421C172.008 150.347 172.036 149.373 171.973 148.638C171.956 148.453 171.939 148.285 171.926 148.137C171.898 147.99 171.877 147.862 171.856 147.758C171.822 147.545 171.802 147.421 171.802 147.421C171.802 147.421 171.875 147.522 172.002 147.712C172.065 147.806 172.142 147.925 172.227 148.063C172.297 148.208 172.375 148.372 172.458 148.561C172.78 149.306 173.018 150.431 172.906 151.61C172.785 152.785 172.4 153.756 172.054 154.408C171.925 154.649 171.804 154.845 171.701 155Z" fill="#D03B58"/>
<path d="M174.961 154.684C174.774 154.713 174.583 154.738 174.389 154.765L174.405 154.637C174.506 153.906 174.627 152.916 174.736 151.845C174.84 150.768 174.867 149.795 174.805 149.06C174.787 148.875 174.773 148.71 174.757 148.563C174.731 148.414 174.706 148.286 174.689 148.182C174.653 147.967 174.633 147.847 174.633 147.847C174.633 147.847 174.704 147.945 174.832 148.134C174.894 148.229 174.973 148.347 175.055 148.487C175.128 148.629 175.206 148.797 175.289 148.982C175.611 149.731 175.849 150.857 175.735 152.033C175.626 153.124 175.286 154.04 174.961 154.684" fill="#D03B58"/>
<path d="M170.572 55.627C170.572 55.627 161.9 59.0642 160.461 60.6686C159.022 62.2722 146.732 105.563 146.732 108.498C146.732 111.433 146.732 116.385 146.732 116.385C146.732 116.385 146.732 131.271 147.649 132.633C148.567 133.996 158.652 140.965 158.652 140.965C158.652 140.965 158.93 144.6 159.847 145.259C160.765 145.919 163.931 144.395 163.931 144.395C163.931 144.395 169.611 134.749 170.966 133.959C170.966 133.959 172.256 131.061 172.197 130.326C172.138 129.592 168.378 127.301 168.378 127.301L165.829 111.8C165.829 111.8 173.393 85.7521 174.187 81.5331C174.981 77.314 170.572 55.627 170.572 55.627" fill="#F1435B"/>
<path d="M166.543 63.7397C166.543 63.7397 172.85 68.6921 174.283 72.1778C175.715 75.6634 174.927 85.6526 174.927 85.6526C174.927 85.6526 178.03 74.9292 177.514 71.8111C176.999 68.6921 166.543 63.7397 166.543 63.7397" fill="#EF2D2E"/>
<path d="M172.197 92.7113L165.829 111.8C165.829 111.8 170.464 120.1 170.739 120.994C171.014 121.888 169.013 125.81 169.013 125.81C169.013 125.81 170.739 126.978 171.289 127.598C171.839 128.217 170.257 132.207 170.257 132.207L163.931 144.395C163.931 144.395 172.072 134.017 172.197 133.559C172.321 133.102 173.765 128.148 173.765 127.323C173.765 126.498 171.46 124.915 171.46 124.915C171.46 124.915 173.422 121.407 173.284 120.65C173.146 119.893 167.919 111.088 167.919 111.088L172.197 92.7113" fill="#EF2D2E"/>
<path d="M220.29 129.409C220.29 129.409 180.558 131.977 178.87 132.528C177.182 133.078 218.822 139.498 218.822 139.498L195.264 133.559L220.29 129.409Z" fill="#EF2D2E"/>
<path d="M231.827 119.898C231.725 119.982 231.628 120.06 231.521 120.14C230.602 120.831 229.606 121.448 228.557 121.961C226.478 122.984 224.204 123.606 221.933 123.622C221.338 123.629 220.747 123.598 220.16 123.508C219.679 123.453 219.207 123.354 218.73 123.227C216.187 122.545 214.052 121.013 212.404 118.996C212.028 118.54 211.678 118.056 211.356 117.544C210.193 115.724 209.372 113.634 208.955 111.481C208.758 110.459 208.643 109.43 208.631 108.403C208.627 108.229 208.629 108.059 208.637 107.896C208.683 101.654 211.465 95.7356 214.636 90.3608C219.23 82.5846 225.454 71.9789 234.066 68.02C236.239 67.0233 238.65 66.8952 240.981 67.4067C241.892 67.6056 242.794 67.9031 243.659 68.2825C244.1 68.4702 244.53 68.6786 244.945 68.9157C245.436 69.1837 245.918 69.4733 246.377 69.797C246.788 70.0826 247.182 70.3856 247.561 70.7046C247.95 71.0347 248.329 71.3871 248.68 71.7562C249.188 72.2748 249.654 72.8276 250.07 73.4083C250.408 73.8808 250.713 74.366 250.969 74.868C251.3 75.4725 251.564 76.089 251.774 76.7285C253.687 82.6554 251.314 89.0507 248.617 94.6554C246.125 99.8584 243.324 104.903 240.246 109.78C237.892 113.511 235.307 117.202 231.827 119.898" fill="#20795A"/>
<path d="M208.955 111.481C208.758 110.459 208.643 109.43 208.631 108.403C208.627 108.229 208.629 108.059 208.637 107.896C208.74 107.631 208.844 107.367 208.958 107.103C212.437 98.7941 217.363 90.9733 222.394 83.5208C227.023 76.6673 232.923 69.972 240.981 67.4067C241.892 67.6056 242.794 67.9031 243.659 68.2825L243.528 68.3183C238.735 69.3611 234.512 71.9964 230.998 75.3643C227.542 78.6813 224.777 82.618 222.193 86.6318C219.806 90.3306 217.468 94.0668 215.289 97.8913C212.818 102.236 210.578 106.762 208.955 111.481" fill="#51C292"/>
<path d="M212.404 118.996C212.027 118.54 211.678 118.056 211.356 117.544C212.339 115.29 213.312 113.036 214.295 110.782C216.183 106.444 217.809 101.812 220.326 97.7888C222.759 93.9086 226.059 90.6656 228.508 86.791C230.922 82.9657 233.107 79.0203 236.313 75.7844C238.91 73.1626 241.894 70.9855 244.944 68.9157C245.436 69.1838 245.917 69.4734 246.377 69.7971C242.605 72.3513 238.886 75.0303 235.907 78.5072C232.989 81.9109 231.019 85.978 228.472 89.6418C225.882 93.3717 222.592 96.5495 220.502 100.618C218.401 104.709 216.726 109.059 214.89 113.275C214.062 115.187 213.235 117.089 212.404 118.996Z" fill="#51C292"/>
<path d="M221.932 123.622C221.337 123.629 220.747 123.598 220.16 123.508C222.041 120.787 223.72 117.928 225.256 114.995C229.252 107.363 232.256 99.2945 235.635 91.3925C238.774 84.0522 242.374 76.8224 247.561 70.7046C247.95 71.0347 248.329 71.3871 248.68 71.7562C245.853 75.0986 243.493 78.8022 241.446 82.6681C237.428 90.2344 234.534 98.3335 231.127 106.177C228.505 112.217 225.593 118.16 221.932 123.622" fill="#51C292"/>
<path d="M231.827 119.898C231.725 119.982 231.628 120.06 231.521 120.14C230.602 120.831 229.606 121.448 228.557 121.961C229.384 120.808 230.177 119.634 230.943 118.433C235.65 111.085 239.197 103.141 241.747 94.8097C243.986 87.4948 245.869 79.8809 250.07 73.4083C250.408 73.8808 250.713 74.3661 250.969 74.868C248.928 78.1826 247.445 81.8066 246.214 85.5023C244.86 89.5503 243.77 93.6794 242.437 97.737C241.107 101.806 239.516 105.788 237.644 109.639C235.924 113.177 233.978 116.603 231.827 119.898" fill="#51C292"/>
<path d="M234.312 101.789C233.729 102.847 236.819 108.095 235.883 106.492C234.947 104.888 229.1 100.66 228.114 101.597C227.126 102.533 232.249 111.566 232.249 111.566C232.249 111.566 226.679 105.482 225.14 107.663C224.638 108.376 224.996 109.82 225.697 111.438C223.845 110.759 222.224 110.548 222.195 111.887C222.127 115.039 230.06 118.837 230.06 118.837C239.689 122.265 241.032 106.103 241.032 106.103C241.032 106.103 234.895 100.731 234.312 101.789Z" fill="#F68672"/>
<path d="M166.125 30.8711L154.429 20.1239L150.644 28.1141L166.125 30.8711Z" fill="white"/>
<path d="M171.143 29.6748L172.319 19.7652L166.868 20.4683L171.143 29.6748Z" fill="white"/>
<path d="M165.616 37.8163L155.023 37.833L155.496 42.853L165.616 37.8163Z" fill="white"/>
<path d="M125.172 282.68C125.172 282.68 97.1511 290 62.586 290C28.0206 290 0 282.68 0 282.68C0 282.68 28.0206 275.36 62.586 275.36C97.1511 275.36 125.172 282.68 125.172 282.68Z" fill="#CBB59B"/>
<path d="M84.3419 54.1492C84.3419 54.1492 89.0253 55.0769 89.6864 55.7371C91.464 57.5112 97.7515 95.4249 97.7515 95.4249L86.3432 96.1836L81.2053 57.8557L84.3419 54.1492Z" fill="#F574A9"/>
<path d="M102.185 275.897L69.344 276.818C69.3047 273.502 69.4084 270.715 69.4809 269.215C69.7931 269.232 70.1304 269.241 70.4668 269.241C71.1253 269.257 71.815 269.275 72.4967 269.284C74.6304 269.309 76.6282 269.284 77.0773 269.13C78.1276 268.78 80.3257 261.561 80.3257 261.561V261.552L80.815 261.527L83.7593 261.365C84.3775 262.771 85.9735 266.078 87.7699 267.596C90.0969 269.547 98.6558 272.974 100.99 274.074C101.792 274.458 102.089 275.232 102.185 275.897" fill="#DCDDDA"/>
<path d="M102.298 279.741L69.4729 280.662C69.4085 279.332 69.3682 278.037 69.3441 276.818L102.185 275.897L102.298 279.741" fill="white"/>
<path d="M49.595 280.542C49.595 282.076 38.4366 285.163 36.3027 284.966C34.1769 284.779 26.3799 278.813 26.3799 278.813C26.3799 278.813 26.6847 277.594 27.1739 275.701C27.7114 273.605 28.4736 270.698 29.3078 267.716C30.4146 267.417 31.6901 267.025 32.0029 266.751C32.5725 266.24 34.2891 261.987 35.1477 261.987C36.006 261.987 43.4339 261.987 43.9155 262.703C44.389 263.411 44.5808 266.956 45.3434 267.357C45.6723 267.536 46.6588 267.818 47.6537 268.064C48.231 271.081 48.7605 274.031 49.017 275.795C49.3543 278.096 49.595 280.006 49.595 280.542" fill="#DCDDDA"/>
<path d="M26.3774 278.815C26.3774 278.815 34.1782 284.776 36.3051 284.97C38.4326 285.159 49.5988 282.083 49.5988 280.544C49.5988 280.004 49.3577 278.096 49.0169 275.795C45.3835 277.34 37.6009 280.4 35.0337 279.4C33.2923 278.72 29.978 277.106 27.1696 275.699C26.6818 277.593 26.3774 278.815 26.3774 278.815Z" fill="white"/>
<path d="M96.0875 268.063L66.3627 270.559L62.3099 270.903C61.653 258.165 64.1174 217.659 64.7119 212.588C64.7357 212.433 64.7513 212.307 64.7667 212.221C65.5964 207.307 67.9351 194.178 67.9351 194.178L65.2441 155.573L65.236 155.683C65.0012 158.038 61.3395 195.641 60.9093 198.153C60.5888 199.977 57.8501 251.335 55.0645 268.063L24.8632 268.908L18.5568 269.088C19.4566 257.766 31.0128 220.898 33.2819 213.364C33.4538 212.824 33.5635 212.433 33.6261 212.221C35.0502 207.002 41.4506 189.476 41.4506 189.476C41.4506 189.476 37.0453 151.505 37.9843 147.272C38.9229 143.046 41.4506 131.233 41.4506 131.233C41.4506 131.233 49.9165 133.893 53.7735 134.339C57.639 134.8 80.6577 133.736 80.6577 133.736L89.0378 131.233C89.0378 131.233 89.2874 133.657 89.656 136.89C90.1096 140.771 90.751 145.808 91.3773 149.173C92.5197 155.347 88.3409 199.609 88.3409 199.609L96.0875 268.063" fill="#46689C"/>
<path d="M89.656 136.89C87.0821 137.656 82.7315 138.9 81.9415 138.9C80.7982 138.9 55.9256 140.723 54.6342 140.113C53.3514 139.51 44.3376 138.751 44.3376 138.751C44.3376 138.751 40.9967 153.633 41.4506 156.215C41.9119 158.796 45.0575 188.873 45.0575 188.873C45.0575 188.873 39.3381 208.622 38.6182 214.701C38.2426 217.893 27.5702 253.213 24.8632 268.908L18.5568 269.088C19.4566 257.766 31.0128 220.898 33.2819 213.364C33.4538 212.823 33.5635 212.432 33.6261 212.22C35.0502 207.002 41.4506 189.476 41.4506 189.476C41.4506 189.476 37.0453 151.505 37.9843 147.272C38.9229 143.046 41.4506 131.233 41.4506 131.233C41.4506 131.233 49.9165 133.892 53.7735 134.339C57.639 134.8 80.6577 133.736 80.6577 133.736L89.0378 131.233C89.0378 131.233 89.2874 133.657 89.656 136.89" fill="#2C507E"/>
<path d="M71.4563 192.622C71.4563 192.622 66.5741 209.819 66.6367 211.854C66.6681 212.925 65.7056 252.633 66.3627 270.559L62.3099 270.903C61.6529 258.165 64.1173 217.659 64.7121 212.588C64.7356 212.433 64.7512 212.307 64.7666 212.221C65.5963 207.307 67.9351 194.178 67.9351 194.178L65.244 155.573L73.3655 152.318L67.834 159.807L71.4563 192.622" fill="#2C507E"/>
<path d="M52.5825 53.2628L39.9986 56.9595L43.3451 98.798L37.0239 150.102C37.0239 150.102 77.6481 157.539 91.871 148.336L84.8991 101.035C84.8991 101.035 91.3137 91.164 91.871 85.0286C92.4293 78.8932 84.3418 54.1494 84.3418 54.1494L77.2464 53.6055L52.5825 53.2628" fill="#F574A9"/>
<path d="M78.6162 20.3259C78.2798 25.9674 75.2828 31.2171 71.3473 35.3879C67.4038 39.5498 63.7466 43.7196 58.9345 46.9126C57.3699 45.7308 45.9109 37.8446 43.978 33.1182C43.5631 32.1404 43.219 31.1312 42.953 30.0988C40.0192 18.8703 44.9247 9.48916 55.6988 5.89809C59.8378 4.5132 67.1927 4.04349 71.0655 6.03137C74.7818 7.93963 77.2474 11.6023 78.2011 15.6075C78.5688 17.1571 78.7101 18.7531 78.6162 20.3259" fill="#300C21"/>
<path d="M77.2473 53.6053L69.1527 50.5823L68.0639 49.9238L67.4652 49.9453L59.3125 50.2477L58.6527 50.2719L57.6816 50.7729L52.5825 53.2626C55.2458 57.4191 61.2632 65.9593 65.8653 65.7857C70.33 65.6175 74.72 58.1599 77.2473 53.6053" fill="#C7614F"/>
<path d="M56.8186 51.2174C56.8186 51.2174 65.4515 52.9629 66.7362 52.4109C68.0218 51.8661 69.7851 50.966 69.7851 50.966C69.4961 50.644 67.5015 47.6255 67.5465 46.6011C67.6508 44.2384 68.3474 40.9175 68.3474 40.9175L60.3238 38.5951C60.3238 38.5951 60.1102 40.8683 59.7741 43.2794C59.4351 45.7226 57.3005 50.822 56.8186 51.2174" fill="#C7614F"/>
<path d="M59.7752 43.2757C62.0241 44.7868 64.7838 46.5698 65.669 46.823C66.3917 47.0278 67.0472 46.8507 67.5439 46.6011C67.6522 44.2366 68.3502 40.9193 68.3502 40.9193L60.326 38.5959C60.326 38.5959 60.109 40.8728 59.7752 43.2757Z" fill="#974237"/>
<path d="M54.8735 16.6945C58.954 11.5262 66.1327 9.67701 71.9922 12.6821C73.3395 13.3727 74.4283 14.1788 74.9463 15.1003C77.0165 18.7862 80.3919 32.5618 77.8431 39.3905C75.2934 46.2202 70.7102 45.5295 69.0703 45.1403C67.4303 44.7503 59.6776 41.9626 57.7986 39.573C55.9188 37.1843 51.517 24.5888 52.1896 21.216C52.4144 20.0896 53.5117 18.4194 54.8735 16.6945" fill="#E27062"/>
<path d="M54.3059 15.7176C58.3862 10.5493 65.5646 8.70098 71.4251 11.7052C72.7725 12.3958 73.8612 13.2019 74.3783 14.1233C76.4485 17.8092 79.824 31.5848 77.2752 38.4145C74.7254 45.2432 70.1422 44.5534 68.5024 44.1634C66.8632 43.7733 59.1103 40.9856 57.2309 38.5961C55.3518 36.2074 50.9492 23.6127 51.622 20.239C51.847 19.1127 52.944 17.4433 54.3059 15.7176" fill="#C7614F"/>
<path d="M69.7271 32.4321C69.3764 32.3945 69.0123 32.2979 68.6804 32.416C69.2109 33.1093 70.0232 33.5799 70.8883 33.6953L71.0887 33.6926L71.2909 33.5557C71.664 33.1916 71.9646 32.7533 72.1694 32.2746C72.2115 32.1771 72.2491 32.0751 72.2482 31.9696C72.2446 31.6207 72.0352 31.7486 71.8581 31.8747C71.6523 32.0205 71.4278 32.1404 71.1925 32.2317C70.7291 32.4124 70.2218 32.4858 69.7271 32.4321" fill="#E27062"/>
<path d="M70.9117 33.4886C71.0691 33.2586 71.2579 33.0502 71.4207 32.8238C71.622 32.5438 71.8018 32.2486 71.945 31.9346C70.688 31.4604 70.4223 30.3359 70.1602 29.0521C70.0421 28.4724 70.0618 27.8667 70.2174 27.2968C70.2979 26.9971 70.416 26.7072 70.5681 26.4361C70.6451 26.2984 70.73 26.166 70.8231 26.0381C70.9143 25.9137 71.0199 25.8305 71.1443 25.7401C71.0968 25.8323 71.0736 25.9307 71.0324 26.0237C70.9269 26.2653 70.8097 26.4952 70.73 26.7475C70.6495 27.0007 70.5914 27.261 70.5547 27.524C70.4822 28.0492 70.4965 28.5886 70.6057 29.1084C70.7122 29.6184 70.9126 30.1104 71.214 30.5363C71.5585 31.0229 72.0648 31.464 72.632 31.6573C72.6374 31.6591 72.1096 32.6941 72.0541 32.7809C71.9119 33.0063 71.749 33.2193 71.5639 33.4116C71.3831 33.6004 71.1765 33.8232 70.9117 33.8777C70.8285 33.8947 70.7399 33.8965 70.6612 33.8661L70.7614 33.7328L70.7989 33.6702L70.9117 33.4886" fill="#974237"/>
<path d="M64.1976 35.8745C66.958 37.2236 70.3105 37.2979 73.1277 36.0713C71.7759 37.1243 70.2488 37.8275 68.5356 37.8087C66.8224 37.7899 65.5256 36.957 64.1976 35.8745" fill="#974237"/>
<path d="M66.9937 38.7069C68.15 39.334 69.6145 39.3528 70.7856 38.7561C70.3588 39.3581 69.7388 39.7545 69.0017 39.7894C68.2654 39.8252 67.4759 39.2651 66.9937 38.7069Z" fill="#974237"/>
<path d="M56.7157 32.6942C56.3009 32.5206 54.1157 29.9521 52.7681 31.6582C51.4209 33.3642 51.1809 36.0768 52.6161 37.5144C53.9262 38.826 55.7267 40.2207 57.7988 39.573L56.7157 32.6942Z" fill="#C7614F"/>
<path d="M52.9239 33.7113C52.8603 34.0755 52.939 34.4449 53.0721 34.792C53.6386 36.2655 55.1231 37.3238 56.5424 38.3035C56.0883 37.6003 55.8867 36.7862 55.9189 35.9783C55.9304 35.6974 55.9692 35.4174 55.9538 35.1365C55.8927 34.0083 53.2999 31.5597 52.9239 33.7113" fill="#E27062"/>
<path d="M57.2483 38.6882L57.1687 38.6471C57.1176 38.6185 57.0358 38.5818 56.9421 38.5227C56.7527 38.4055 56.4896 38.215 56.2345 37.9242C55.9804 37.6343 55.7421 37.2407 55.6104 36.7648C55.4887 36.2897 55.4723 35.7288 55.6806 35.1741L55.7662 34.9701L55.7899 34.92L55.7932 34.9146L55.7928 34.9164L55.7941 34.9156H55.7945L55.7899 34.9075L55.7651 34.8663L55.7142 34.7832L55.6093 34.6212C55.4678 34.4092 55.3164 34.2115 55.1623 34.0281C55.0082 33.8456 54.8502 33.6774 54.6944 33.5253C54.5378 33.3732 54.3876 33.2318 54.2401 33.129C54.0933 33.0252 53.935 32.9617 53.79 32.951C53.6446 32.9429 53.5104 32.9867 53.4217 33.0404C53.3318 33.0959 53.2846 33.1621 53.2661 33.2113L53.2469 33.2873L53.2462 33.2077C53.2521 33.154 53.2846 33.0726 53.3724 32.9939C53.46 32.917 53.5999 32.8409 53.7903 32.8239C53.9808 32.8096 54.1908 32.865 54.3809 32.9634C54.5731 33.0627 54.7479 33.1898 54.9327 33.3312C55.1165 33.4734 55.3035 33.6353 55.4849 33.8169C55.6663 33.9985 55.8431 34.1999 56.0056 34.4199L56.1251 34.5881L56.1828 34.6749L56.2596 34.7984L56.3131 34.8842L56.2726 34.9764L56.2117 35.1088L56.1384 35.285C55.957 35.7672 55.9413 36.2593 56.0088 36.6968C56.0852 37.1333 56.2491 37.5154 56.4382 37.8142C56.628 38.1139 56.837 38.3322 56.9925 38.4753L57.1808 38.6328L57.2483 38.6882" fill="#974237"/>
<path d="M76.5112 21.9443C76.5112 21.9443 74.4285 20.5066 73.1849 20.6918C71.9396 20.8779 71.6238 22.0454 72.1284 22.2467C72.6338 22.448 76.5112 21.9443 76.5112 21.9443Z" fill="#470A27"/>
<path d="M58.9345 24.8259C58.9345 24.8259 61.6848 22.1376 63.6065 21.6661C65.5282 21.1946 66.3142 22.2905 65.6089 22.7826C64.9034 23.2755 58.9345 24.8259 58.9345 24.8259Z" fill="#470A27"/>
<path d="M64.492 33.4215C64.4448 34.0209 63.1238 34.4047 61.5417 34.2803C59.9597 34.1551 58.7157 33.5691 58.7632 32.9697C58.8103 32.3703 60.131 31.9856 61.7129 32.1108C63.2954 32.2361 64.5395 32.823 64.492 33.4215Z" fill="#E27062"/>
<path d="M79.6431 29.5657C79.8588 29.9665 79.0545 30.8172 77.8467 31.4668C76.639 32.1154 75.4849 32.3167 75.2702 31.9159C75.0537 31.516 75.8588 30.6643 77.0666 30.0148C78.2744 29.3653 79.4284 29.164 79.6431 29.5657Z" fill="#E27062"/>
<path d="M51.6461 35.0417C49.2946 31.9213 47.0782 27.9097 46.4226 24.0574C45.7681 20.2051 46.4296 16.0388 48.7316 12.8808C50.8178 10.0197 54.0724 8.18663 57.4605 7.15601C62.2915 5.68702 67.8011 5.78541 72.1033 8.42995C76.4048 11.0727 79.0636 16.598 77.4962 21.3977C76.1596 19.5091 74.2567 18.0267 72.0989 17.1929C71.9441 18.1045 71.5872 18.9813 71.0611 19.7417C70.6201 18.3586 69.8712 17.0739 68.8845 16.0084C68.642 17.5293 67.7048 18.9249 66.389 19.7238C66.2017 18.2575 65.6251 16.844 64.7336 15.6649C63.9424 17.7816 62.3465 19.5852 60.3419 20.6283C60.3444 19.255 60.3461 17.8818 60.3479 16.5085C59.7894 19.6013 57.7538 22.3943 54.98 23.8731C54.98 23.8731 55.5242 30.9139 55.2285 32.1226C55.2285 32.1226 54.0225 31.2208 52.9014 32.0877C51.781 32.9537 51.6461 35.0417 51.6461 35.0417" fill="#300C21"/>
<path d="M63.6456 26.811C62.3659 26.972 61.2319 27.7763 60.4354 28.7917C62.2845 28.1297 64.376 27.958 66.3041 28.3346L66.9163 28.3901C66.3323 27.2396 64.926 26.65 63.6456 26.811" fill="#121414"/>
<path d="M74.4437 25.6157C75.3267 25.4359 76.2571 25.715 77.0113 26.2089C75.6398 26.1847 74.2174 26.5381 73.0248 27.218L72.6321 27.3916C72.7618 26.4997 73.5607 25.7947 74.4437 25.6157" fill="#121414"/>
<path d="M69.9858 10.4365C70.3767 11.4143 70.3767 12.5407 69.9786 13.5114C68.9686 11.7033 67.3257 10.2638 65.4088 9.50518C65.7999 10.8507 65.9484 12.2669 65.8547 13.667C64.791 12.1104 63.1086 10.9992 61.262 10.6163C61.6451 12.0871 61.6063 13.6599 61.1446 15.0994C60.2447 13.4013 58.711 12.0477 56.9116 11.3598C56.2623 17.5721 52.092 23.6127 46.6072 26.5936C45.4414 28.6352 44.5492 30.8342 43.9781 33.1182C43.5633 32.1403 43.2191 31.1312 42.9531 30.0988C42.3587 27.8371 42.0924 25.6543 42.1239 23.5724C42.2332 15.3266 47.0922 8.76981 55.6989 5.89803C59.8379 4.51313 67.1928 4.04343 71.0656 6.03131C73.0374 7.04761 74.6647 8.5506 75.8778 10.3497C76.9729 11.9305 77.7557 13.7305 78.2012 15.6075C75.7991 13.4094 73.0061 11.6407 69.9858 10.4365Z" fill="#470A27"/>
<path d="M67.4977 9.12145C66.1362 7.68198 64.2032 6.79808 62.2242 6.70415C62.3885 7.58805 62.5527 8.47196 62.717 9.35586C61.6214 8.44065 60.2057 7.90119 58.7736 7.86988C58.8281 8.66789 58.883 9.46589 58.9379 10.2639C57.7094 9.21539 56.1212 8.59722 54.5014 8.54265C53.4925 15.2873 48.5003 21.2259 42.1237 23.5725C42.233 15.3267 47.092 8.76988 55.6987 5.8981C59.8377 4.51321 67.1926 4.0435 71.0654 6.03138C73.0371 7.04769 74.6645 8.55067 75.8776 10.3498C73.123 8.879 70.1269 7.85377 67.0514 7.32235C67.1999 7.92444 67.3491 8.51936 67.4977 9.12145Z" fill="#630D30"/>
<path d="M39.9987 56.9593C39.9987 56.9593 31.5394 60.672 30.4236 63.2754C29.3081 65.8788 21.8715 102.154 21.4996 104.002C21.4996 104.002 40.6493 108.827 47.3427 106.595L48.2722 85.7728L39.9987 56.9593" fill="#F574A9"/>
<path d="M39.9985 60.9047C39.9985 60.9047 48.458 73.4547 48.2721 75.2672C48.0866 77.0806 44.1368 103.101 44.1368 103.101C44.1368 103.101 51.1538 77.638 50.3172 74.989C49.4809 72.3391 39.9985 60.9047 39.9985 60.9047Z" fill="#F14A8F"/>
<path d="M56.0009 77.4958C53.137 82.9262 41.2838 84.5688 40.6572 84.6475L40.6341 84.6555C40.6341 84.6555 43.5138 78.9826 44.7027 74.7027C45.8923 70.4308 36.1739 55.1818 39.5232 48.9533C42.8641 42.7249 49.3579 38.5631 49.3579 38.5631L49.8982 39.047L50.7355 39.7914L50.9155 39.947L52.1201 40.9956L50.1564 45.7604C50.1564 45.7604 56.1575 52.6777 56.7596 54.4697C57.3621 56.2607 58.9507 71.9177 56.0009 77.4958" fill="#300C21"/>
<path d="M50.7823 79.0766C49.3264 80.7898 41.166 84.4202 40.6572 84.6475L40.6341 84.6555C40.6341 84.6555 43.5138 78.9826 44.7027 74.7027C45.8923 70.4308 36.1739 55.1818 39.5232 48.9533C42.8641 42.7249 49.3583 38.5631 49.3583 38.5631L49.8982 39.047L50.7354 39.7914L50.9155 39.947C49.9684 41.4813 48.1925 44.1259 47.5116 45.7604C46.3067 48.6787 51.6975 55.2677 51.6975 58.2012C51.6975 61.1356 52.2843 77.3088 50.7823 79.0766" fill="#470A27"/>
<path d="M47.8873 65.5953C48.2546 68.2005 47.7074 76.5653 47.0504 77.9574C46.4007 79.3503 40.6341 84.6555 40.6341 84.6555C40.6341 84.6555 43.5138 78.9826 44.7027 74.7027C45.8923 70.4308 36.1739 55.1818 39.5232 48.9533C42.8641 42.7249 49.3583 38.5631 49.3583 38.5631L49.8982 39.047C46.8934 42.5137 41.6902 48.8827 41.5647 50.0019C41.3775 51.6525 47.5116 62.9902 47.8873 65.5953" fill="#630D30"/>
<path d="M70.161 92.5507L55.8994 93.4238C55.8994 93.4238 49.5321 61.5874 53.3937 52.4612C53.9735 51.0817 54.7895 50.2246 55.8994 50.0698C60.2587 49.4651 63.9159 60.7956 66.4295 71.9061C68.7967 82.3304 70.161 92.5507 70.161 92.5507" fill="#FAB663"/>
<path d="M62.1461 62.8837C59.7736 61.2205 57.0191 60.1058 54.1577 59.6504C56.4107 61.862 58.9922 63.0384 62.1461 62.8837Z" fill="#F7923D"/>
<path d="M62.9987 70.9962C60.6261 69.3331 57.872 68.2175 55.0105 67.7621C57.2635 69.9745 59.8447 71.151 62.9987 70.9962Z" fill="#F7923D"/>
<path d="M63.924 79.4756C61.5515 77.8125 58.7967 76.6969 55.9355 76.2415C58.1882 78.4539 60.7697 79.6295 63.924 79.4756Z" fill="#F7923D"/>
<path d="M66.4295 71.906C66.0622 70.6813 65.7194 69.4485 65.3693 68.2246C64.3159 64.5995 63.1243 60.9342 60.9282 57.8656C59.083 55.3025 56.4222 53.1876 53.3937 52.4611C53.9735 51.0816 54.7895 50.2245 55.8994 50.0698C60.2587 49.465 63.9158 60.7955 66.4295 71.906" fill="#F7923D"/>
<path d="M74.7933 83.7589C74.7405 86.56 74.6815 89.0981 74.6403 90.7818C74.6108 91.9511 73.8432 92.8779 72.9056 92.8779H63.7986C62.8603 92.8779 62.0932 91.9511 62.0635 90.7818C62.0219 89.0981 61.9632 86.56 61.9101 83.7589C61.8451 80.3459 61.7979 76.5509 61.8097 73.4474C61.8273 70.1157 61.9101 67.5929 62.1166 67.1813C62.8131 65.8349 65.1853 64.4903 65.1853 64.4903L65.7459 53.2447H70.9517L71.518 64.4903C71.518 64.4903 73.8906 65.8349 74.5866 67.1813C74.7933 67.5929 74.8765 70.1157 74.8881 73.4474C74.906 76.5509 74.8586 80.3459 74.7933 83.7589" fill="#2EAE7D"/>
<path d="M71.018 54.1895H65.6855C65.2965 54.1895 64.9813 53.8745 64.9813 53.4854V52.8788C64.9813 52.4887 65.2965 52.1738 65.6855 52.1738H71.018C71.4063 52.1738 71.7221 52.4887 71.7221 52.8788V53.4854C71.7221 53.8745 71.4063 54.1895 71.018 54.1895Z" fill="#363950"/>
<path d="M74.7933 83.759H61.9101C61.8451 80.346 61.7979 76.551 61.8097 73.4475H74.8881C74.906 76.551 74.8586 80.346 74.7933 83.759Z" fill="#20795A"/>
<path d="M95.0793 62.4381C95.2752 61.2545 95.4005 60.0199 95.0561 58.8712C94.7116 57.7207 93.7973 56.6704 92.6092 56.4968C91.0597 56.2705 89.6775 57.5597 88.9681 58.9562C88.0636 60.7365 87.8319 62.7978 87.9768 64.7901C88.1083 66.5955 88.4805 72.9071 91.083 71.5151C93.5924 70.1731 94.6678 64.9243 95.0793 62.4381" fill="#20795A"/>
<path d="M88.9107 78.0012L89.7535 77.91C89.8894 77.4072 91.2654 71.8434 91.3835 71.3317C92.0795 68.2747 92.4195 65.1337 92.3873 61.9899C92.3855 61.4854 91.5991 61.4791 91.6053 61.9828C91.6367 65.2643 91.2627 68.5279 90.4924 71.7021C90.3904 72.1181 89.0306 77.5879 88.9107 78.0012" fill="#51C292"/>
<path d="M101.274 62.5757C102.216 61.8332 103.236 61.1282 104.409 60.875C105.582 60.6219 106.945 60.9153 107.669 61.8716C108.616 63.1197 108.153 64.9537 107.273 66.2482C106.149 67.8988 104.457 69.0967 102.641 69.9314C100.995 70.6874 95.2886 73.4071 95.2519 70.4557C95.2161 67.6107 99.2947 64.136 101.274 62.5757Z" fill="#20795A"/>
<path d="M90.0389 78.0728L90.1113 78.0638L91.2341 77.935L91.2618 77.9296C91.753 77.4259 94.861 71.5383 95.3709 71.0704C97.7819 68.858 100.46 66.9551 103.345 65.4011C103.79 65.1587 103.41 64.477 102.963 64.7132C100.197 66.2036 97.6102 68.0144 95.2725 70.1033C94.3591 70.9139 90.8727 77.1799 90.0389 78.0728Z" fill="#51C292"/>
<path d="M92.0554 65.571C93.1424 65.8976 94.2276 66.3521 95.0301 67.1554C96.1126 68.2397 96.5465 69.8608 96.4141 71.3871C96.1331 74.6248 93.2309 77.4267 89.9861 77.5931C86.9193 77.7515 83.704 75.3637 82.7199 72.4633C81.8673 69.9512 83.8686 66.4907 86.183 65.5308C88.0394 64.7605 90.1793 65.0083 92.0554 65.571" fill="#E83847"/>
<path d="M90.5246 67.2136C90.7581 64.8581 91.6143 62.5669 92.9813 60.6336C93.3284 60.8832 93.6308 61.1891 93.9779 61.4388C92.9338 63.4034 91.3369 65.1425 90.5246 67.2136" fill="#312A2A"/>
<path d="M90.6177 66.7251C91.0973 65.2615 90.9452 63.6028 90.2071 62.2501C89.4699 60.8983 88.1566 59.8722 86.6661 59.483C86.2072 60.8957 86.2 62.4371 86.8862 63.7549C87.5733 65.0718 89.1971 66.293 90.6177 66.7251" fill="#2EAE7D"/>
<path d="M78.6251 65.5478C79.6575 65.0763 80.7731 64.7024 81.9057 64.7766C83.4355 64.8786 84.8303 65.8108 85.7365 67.0463C87.66 69.6658 87.3254 73.6863 84.9958 75.9506C82.7941 78.0915 78.8022 78.4162 76.1496 76.8846C73.8531 75.5579 73.0766 71.6367 74.1832 69.3885C75.0707 67.5858 76.843 66.3619 78.6251 65.5478" fill="#F1435B"/>
<path d="M78.5562 67.7915C77.1793 65.8663 76.3115 63.5796 76.0655 61.2249C76.4904 61.1837 76.9208 61.2142 77.3457 61.173C77.8557 63.338 77.8029 65.699 78.5562 67.7915Z" fill="#312A2A"/>
<path d="M78.3057 67.3631C77.701 65.946 76.4923 64.8 75.0457 64.2694C73.5991 63.7398 71.9359 63.8338 70.5591 64.5244C71.1451 65.8887 72.1569 67.0526 73.5409 67.5903C74.9258 68.128 76.9513 67.9741 78.3057 67.3631" fill="#20795A"/>
<path d="M78.3477 58.4192C78.3218 58.1321 78.3021 57.8351 78.397 57.5622C78.4909 57.2902 78.7289 57.0469 79.0178 57.037C79.3936 57.0245 79.6655 57.3833 79.8498 57.7125C80.4358 58.7547 80.8509 59.8927 81.0755 61.0674C81.1676 59.3899 81.7572 57.7438 82.7493 56.3893C83.0714 55.9501 83.6851 55.5126 84.0967 55.8678C84.3463 56.0834 84.3391 56.4663 84.3015 56.7937C84.1557 58.0686 83.8667 59.3264 83.4427 60.5369C84.1611 59.593 85.2838 58.9695 86.4648 58.8585C86.7833 58.8281 87.176 58.8773 87.3057 59.1699C87.4247 59.44 87.2404 59.7433 87.0525 59.9723C86.3091 60.8777 85.3769 61.6265 84.332 62.157C84.8186 61.9173 85.3366 61.6722 85.8761 61.7214C86.4156 61.7697 86.9559 62.2411 86.8674 62.7761C86.7994 63.1939 86.4021 63.4668 86.0309 63.6708C84.8911 64.297 81.0558 66.0711 79.8615 65.0655C79.2961 64.5895 79.0992 62.7547 78.9355 62.0568C78.6555 60.8598 78.4587 59.6431 78.3477 58.4192" fill="#2EAE7D"/>
<path d="M83.4777 67.6001C83.3641 68.7201 82.8944 69.7687 82.338 70.7608C82.2575 70.9057 82.1671 71.056 82.0785 71.1983C82.0204 71.3065 81.9587 71.4049 81.8978 71.5087C80.4405 73.935 78.8158 76.4104 77.0024 78.7034C76.8986 78.8358 76.7912 78.9709 76.6821 79.1006C75.5736 80.4801 74.3909 81.7881 73.134 82.9779C71.3393 84.6768 70.4384 83.7965 70.8544 81.6619C71.0021 80.9024 71.1667 80.1455 71.3554 79.3905C71.3894 79.2267 71.4324 79.0585 71.4717 78.893C71.894 77.2075 72.3995 75.5372 72.9846 73.8974C73.0436 73.739 73.1027 73.5816 73.1617 73.4232C73.4704 72.5885 73.7987 71.761 74.1494 70.9469C74.2147 70.7912 74.2827 70.64 74.3543 70.4879C74.7559 69.5745 75.1863 68.6754 75.639 67.7888C75.9789 67.1286 76.3484 66.4612 76.7859 65.8627C76.8968 65.7097 77.0104 65.5612 77.1294 65.427C77.3951 65.1076 77.6895 64.8142 78.0151 64.5574C79.0806 63.7317 80.6006 63.3559 81.7976 63.975C83.0582 64.6227 83.6155 66.1928 83.4777 67.6001" fill="#F68640"/>
<path d="M73.0175 80.0739C72.4664 79.8485 71.9082 79.6203 71.3553 79.3904C71.3893 79.2267 71.4322 79.0585 71.4716 78.893C72.0495 79.1283 72.6275 79.3645 73.2054 79.6006C73.5051 79.7304 73.3199 80.1974 73.0175 80.0739" fill="#F46F2E"/>
<path d="M77.0022 78.7034C76.8985 78.8358 76.7911 78.9709 76.682 79.1006C75.5726 78.5209 74.4355 77.9912 73.2779 77.5153C72.9755 77.3918 73.1634 76.9186 73.4649 77.0411C74.6699 77.5359 75.8508 78.0914 77.0022 78.7034Z" fill="#F46F2E"/>
<path d="M76.3778 75.598C75.2988 74.9333 74.1618 74.3652 72.9844 73.8973C73.0435 73.739 73.1025 73.5815 73.1616 73.4232C74.3827 73.9045 75.5592 74.5003 76.6784 75.1928C76.9575 75.3645 76.6569 75.7707 76.3778 75.598Z" fill="#F46F2E"/>
<path d="M78.9061 73.0359C77.4004 72.1681 75.8026 71.4685 74.1493 70.9469C74.2146 70.7913 74.2826 70.6401 74.3542 70.488C76.0414 71.0221 77.6688 71.7378 79.2102 72.628C79.4903 72.7881 79.1852 73.1961 78.9061 73.0359" fill="#F46F2E"/>
<path d="M82.3377 70.7608C82.2572 70.9057 82.1668 71.056 82.0783 71.1982C80.6012 70.2642 78.9793 69.5745 77.2714 69.1701C76.9619 69.0941 77.0146 68.5904 77.3358 68.6673C79.1072 69.0887 80.7972 69.7981 82.3377 70.7608Z" fill="#F46F2E"/>
<path d="M81.1587 67.3441C81.0657 67.4622 80.9217 67.4631 80.8009 67.3996C79.5457 66.7009 78.1903 66.1776 76.7858 65.8626C76.8967 65.7097 77.0103 65.5611 77.1293 65.4269C78.5151 65.766 79.8508 66.2921 81.1033 66.9872C81.2223 67.0579 81.2321 67.2457 81.1587 67.3441" fill="#F46F2E"/>
<path d="M53.2435 131.233L62.3995 138.295L100.796 131.508L97.1701 71.7352L93.0798 75.7325L87.0375 72.8508L84.3419 77.3133L78.7576 74.1525L75.5101 78.5219L70.8965 75.9186L68.3503 79.9158L64.063 77.2202L61.6275 82.003L59.7753 78.8932L58.0333 81.0314L55.6164 78.9863L53.2435 82.003V131.233" fill="#C07E53"/>
<path d="M62.3995 138.295L53.2435 131.233V82.003L55.6164 78.9863L58.0333 81.0314L59.7753 78.8932L61.6275 82.003L62.3995 138.295Z" fill="#A55D39"/>
<path d="M76.9978 101.433C77.5525 102.836 67.4926 105.551 67.4926 105.551L67.2123 108.433L71.5227 107.692L77.5588 109.738C77.5588 109.738 77.6876 110.971 77.7547 112.49C77.7654 112.68 77.7699 112.873 77.7771 113.069C77.8075 113.976 77.8066 114.941 77.7395 115.777C77.7368 115.858 77.7279 115.94 77.7234 116.019C77.6804 116.435 77.6214 116.813 77.5418 117.126C77.4505 117.475 77.3315 117.742 77.175 117.899L72.2366 117.362C72.2366 117.362 67.3685 122.179 66.3659 122.458C65.9675 122.567 64.2325 122.054 62.2869 121.396C61.3539 121.079 57.7338 119.817 56.8261 119.486L56.1912 115.032L59.5245 110.39C59.8976 109.827 60.4072 109.091 61.0023 108.291L61.0009 108.289C61.2931 107.895 61.6065 107.487 61.9336 107.076C63.1219 105.585 64.5064 104.069 65.8264 103.141C66.3851 102.745 66.9324 102.459 67.4479 102.326C71.0038 101.407 76.445 100.033 76.9978 101.433" fill="#C7614F"/>
<path d="M77.7393 115.777C77.7366 115.858 77.7277 115.94 77.7232 116.019C77.5219 115.969 77.2598 115.902 76.9431 115.824C76.2229 115.648 75.2478 115.426 74.1876 115.208C73.1266 114.998 72.1559 114.872 71.4161 114.859C71.23 114.858 71.0609 114.858 70.9106 114.856C70.7612 114.869 70.6315 114.877 70.5259 114.888C70.3094 114.9 70.1841 114.907 70.1841 114.907C70.1841 114.907 70.2915 114.844 70.4955 114.737C70.5948 114.684 70.7218 114.619 70.8685 114.549C71.0197 114.493 71.1906 114.432 71.3883 114.368C72.1631 114.123 73.3118 113.998 74.4775 114.23C75.6378 114.47 76.5683 114.953 77.1838 115.364C77.411 115.518 77.5953 115.658 77.7393 115.777" fill="#974237"/>
<path d="M77.7546 112.49C77.7654 112.68 77.7698 112.873 77.777 113.069L77.6509 113.04C76.9316 112.865 75.9555 112.643 74.8972 112.427C73.8344 112.215 72.8637 112.089 72.1247 112.076C71.9377 112.075 71.7713 112.072 71.6237 112.073C71.4716 112.084 71.3419 112.096 71.2363 112.102C71.018 112.117 70.8964 112.125 70.8964 112.125C70.8964 112.125 71.0019 112.064 71.2032 111.954C71.3043 111.903 71.4296 111.836 71.5781 111.767C71.7275 111.71 71.9028 111.648 72.0961 111.585C72.8762 111.34 74.024 111.215 75.187 111.449C76.2642 111.668 77.1445 112.1 77.7546 112.49" fill="#974237"/>
<path d="M60.38 120.737C60.38 120.737 29.959 124.072 27.5885 123.096C25.2181 122.12 23.8237 119.47 23.8237 119.47L24.7086 104.746C24.7086 104.746 37.0524 107.059 39.1528 107.046L37.354 111.528L57.7989 113.069L60.38 120.737" fill="#C7614F"/>
<path d="M96.8336 101.123C96.6386 102.14 100.554 105.6 99.3655 104.541C98.1756 103.481 92.2826 101.587 91.7262 102.614C91.1706 103.641 97.7498 109.645 97.7498 109.645C97.7498 109.645 91.5893 106.164 90.9147 108.352C90.6947 109.067 91.3701 110.15 92.3721 111.283C90.6804 111.222 89.3026 111.481 89.6345 112.581C90.4173 115.17 97.8974 116.158 97.8974 116.158C106.664 116.395 103.461 102.855 103.461 102.855C103.461 102.855 97.0269 100.105 96.8336 101.123" fill="#C7614F"/>
<path d="M91.3809 36.9268L103.235 26.0337L107.072 34.1319L91.3809 36.9268Z" fill="white"/>
<path d="M86.293 35.7136L85.1022 25.6696L90.6275 26.3826L86.293 35.7136Z" fill="white"/>
<path d="M91.8961 43.9656L102.633 43.9835L102.153 49.0713L91.8961 43.9656Z" fill="white"/>
</svg>
